<?xml version="1.0" encoding="UTF-8" standalone="no"?>
<!-- Created with Inkscape (http://www.inkscape.org/) -->

<svg
   width="297mm"
   height="210mm"
   viewBox="0 0 297 210"
   version="1.1"
   id="svg1"
   inkscape:version="1.4.2 (2aeb623e1d, 2025-05-12)"
   sodipodi:docname="20.2.3.3 - Listando repositórios.svg"
   xmlns:inkscape="http://www.inkscape.org/namespaces/inkscape"
   xmlns:sodipodi="http://sodipodi.sourceforge.net/DTD/sodipodi-0.dtd"
   xmlns="http://www.w3.org/2000/svg"
   xmlns:svg="http://www.w3.org/2000/svg">
  <sodipodi:namedview
     id="namedview1"
     pagecolor="#ffffff"
     bordercolor="#000000"
     borderopacity="0.25"
     inkscape:showpageshadow="2"
     inkscape:pageopacity="0.0"
     inkscape:pagecheckerboard="0"
     inkscape:deskcolor="#d1d1d1"
     inkscape:document-units="mm"
     inkscape:zoom="1.4877245"
     inkscape:cx="585.79396"
     inkscape:cy="161.65628"
     inkscape:window-width="1920"
     inkscape:window-height="1043"
     inkscape:window-x="1920"
     inkscape:window-y="0"
     inkscape:window-maximized="1"
     inkscape:current-layer="layer1" />
  <defs
     id="defs1" />
  <g
     inkscape:label="Layer 1"
     inkscape:groupmode="layer"
     id="layer1">
    <rect
       style="fill:#1a1a1a;fill-opacity:1;stroke:#000000;stroke-width:0;stroke-dasharray:none;stroke-opacity:1"
       id="rect6-54-7-9"
       width="40.200962"
       height="27.079235"
       x="7.1566172"
       y="4.6865158"
       ry="1.4208242" />
    <rect
       style="fill:#cccccc;fill-opacity:1;stroke:#000000;stroke-width:0;stroke-dasharray:none;stroke-opacity:1"
       id="rect6-4-7-3-3"
       width="50.011307"
       height="1.5486882"
       x="2.2540407"
       y="31.632792"
       ry="0.081258327" />
    <rect
       style="fill:#00ccff;fill-opacity:1;stroke:#000000;stroke-width:0;stroke-dasharray:none;stroke-opacity:1"
       id="rect6-5-1-9-1"
       width="37.099037"
       height="23.903276"
       x="8.6188126"
       y="6.2358212"
       ry="1.254184" />
    <path
       style="fill:#ffaaaa;fill-opacity:1;stroke:#000000;stroke-width:0;stroke-dasharray:none;stroke-opacity:1"
       id="path6-5-2-7"
       sodipodi:type="arc"
       sodipodi:cx="26.624901"
       sodipodi:cy="5.480454"
       sodipodi:rx="0.30676886"
       sodipodi:ry="0.35520604"
       sodipodi:start="3.17482"
       sodipodi:end="3.1616747"
       sodipodi:open="true"
       sodipodi:arc-type="arc"
       d="M 26.318301,5.4686536 A 0.30676886,0.35520604 0 0 1 26.634084,5.1254071 0.30676886,0.35520604 0 0 1 26.931561,5.4899208 0.30676886,0.35520604 0 0 1 26.617733,5.835563 0.30676886,0.35520604 0 0 1 26.318194,5.4733212" />
    <rect
       style="fill:#cccccc;fill-opacity:1;stroke:#000000;stroke-width:0;stroke-dasharray:none;stroke-opacity:1"
       id="rect6-4-4-32-7-8"
       width="50.011307"
       height="1.5486882"
       x="2.2601614"
       y="32.293739"
       ry="0.73134112" />
    <path
       id="rect6-4-4-3-2-2-4"
       style="fill:#666666;fill-opacity:1;stroke:#000000;stroke-width:0;stroke-dasharray:none;stroke-opacity:1"
       d="m 2.3956637,33.476827 c 0.02312,0.20789 0.197889,0.36825 0.411083,0.36825 H 51.739589 c 0.21319,0 0.387607,-0.16036 0.410757,-0.36825 z" />
    <rect
       style="fill:#999999;fill-opacity:1;stroke:#000000;stroke-width:0;stroke-dasharray:none;stroke-opacity:1"
       id="rect6-4-4-8-3-9-5"
       width="12.406287"
       height="0.80995715"
       x="21.41684"
       y="31.643648"
       ry="0.38248819" />
    <text
       xml:space="preserve"
       style="font-size:1.51498px;font-family:sans-serif;-inkscape-font-specification:'sans-serif, Normal';text-align:start;writing-mode:lr-tb;direction:ltr;text-anchor:start;fill:#1a1a1a;stroke-width:0.0227248"
       x="22.843292"
       y="28.816645"
       id="text3-9-3-8-3-0"><tspan
         sodipodi:role="line"
         style="fill:#1a1a1a;stroke-width:0.0227248"
         x="22.843292"
         y="28.816645"
         id="tspan1">Windows 11</tspan></text>
    <rect
       style="fill:#ffe6d5;stroke:#000000;stroke-width:0"
       id="rect7-7-8-6"
       width="121.03895"
       height="12.496944"
       x="53.359867"
       y="10.97861"
       ry="2.7040544" />
    <text
       xml:space="preserve"
       style="font-size:10.5065px;font-family:sans-serif;-inkscape-font-specification:'sans-serif, Normal';text-align:start;writing-mode:lr-tb;direction:ltr;text-anchor:start;fill:#1a1a1a;stroke-width:0.157596"
       x="56.024876"
       y="20.898504"
       id="text3-9-2-1-2-1"><tspan
         sodipodi:role="line"
         style="fill:#1a1a1a;stroke-width:0.157596"
         x="56.024876"
         y="20.898504"
         id="tspan12-0"> Windows 11 - amd64 </tspan><tspan
         sodipodi:role="line"
         style="fill:#1a1a1a;stroke-width:0.157596"
         x="56.024876"
         y="34.031631"
         id="tspan4-65-4-5-6" /></text>
    <rect
       style="fill:#decd87;stroke:#000000;stroke-width:0"
       id="rect7-7-8-6-3"
       width="109.56799"
       height="12.496944"
       x="52.613842"
       y="59.443382"
       ry="2.7040544" />
    <text
       xml:space="preserve"
       style="font-size:10.5065px;font-family:sans-serif;-inkscape-font-specification:'sans-serif, Normal';text-align:start;writing-mode:lr-tb;direction:ltr;text-anchor:start;fill:#1a1a1a;stroke-width:0.157596"
       x="56.091686"
       y="70.068459"
       id="text3-9-2-1-2-1-7"><tspan
         sodipodi:role="line"
         style="fill:#1a1a1a;stroke-width:0.157596"
         x="56.091686"
         y="70.068459"
         id="tspan12-0-2"> Windows 11 - i386 </tspan><tspan
         sodipodi:role="line"
         style="fill:#1a1a1a;stroke-width:0.157596"
         x="56.091686"
         y="83.201584"
         id="tspan4-65-4-5-6-2" /></text>
    <path
       style="fill:#ffffff;stroke-width:0.224535"
       d="m 34.479114,25.6351 c -0.392109,-0.0586 -1.033702,-0.136913 -1.425792,-0.17316 -1.277611,-0.118883 -5.248331,-0.692585 -5.343963,-0.771954 -0.08095,-0.06705 -0.09184,-0.478686 -0.09184,-3.453155 0,-3.277816 0.0038,-3.378709 0.114938,-3.438412 0.07569,-0.04038 1.400401,-0.06142 3.886996,-0.06142 3.349937,0 3.782536,0.0094 3.865435,0.09316 0.08301,0.08301 0.09334,0.520156 0.09334,3.916708 0,3.396568 -0.01125,3.83377 -0.09334,3.916725 -0.108925,0.108925 -0.08358,0.109683 -1.005699,-0.02873 z M 23.726223,24.267228 c -1.274304,-0.159825 -2.78292,-0.345456 -3.352489,-0.412184 -0.569569,-0.06667 -1.070851,-0.150623 -1.113916,-0.186308 -0.06292,-0.0522 -0.07833,-0.632504 -0.07833,-2.936905 0,-2.778581 0.0038,-2.873934 0.114938,-2.933451 0.0755,-0.04038 1.334854,-0.06142 3.67603,-0.06142 2.93345,0 3.57296,0.01315 3.628306,0.08113 0.04865,0.0586 0.06292,0.998469 0.05184,3.401151 l -0.01502,3.32015 -0.297041,0.0074 c -0.163393,0.0057 -1.339661,-0.121513 -2.613967,-0.281395 z m -4.425895,-7.464781 c -0.04902,-0.01877 -0.108747,-0.06329 -0.132781,-0.09916 -0.02386,-0.03606 -0.04413,-1.296671 -0.04451,-2.801605 -6.92e-4,-2.097755 0.01691,-2.759426 0.07343,-2.835414 0.05746,-0.07663 0.316253,-0.127335 1.14361,-0.223587 0.588124,-0.06836 2.205518,-0.266708 3.594182,-0.440545 1.686789,-0.211154 2.559351,-0.297772 2.628822,-0.260961 0.0971,0.05165 0.104047,0.271309 0.104047,3.32199 v 3.26683 l -0.152313,0.05803 c -0.161892,0.0614 -7.054268,0.07532 -7.214225,0.01502 z m 8.4508,-0.01691 -0.133721,-0.05447 V 13.41151 c 0,-3.087679 0.0074,-3.325858 0.104047,-3.409359 0.103112,-0.089397 3.859163,-0.6284099 5.308938,-0.7623561 0.34679,-0.031928 1.013513,-0.1113701 1.481609,-0.1767285 0.468077,-0.06517 0.857443,-0.1185072 0.865276,-0.1185072 0.0074,0 0.05634,0.041882 0.10761,0.09334 0.08301,0.083013 0.09316,0.5130016 0.0924,3.8466918 -4.51e-4,2.260755 -0.02328,3.788771 -0.05728,3.84243 -0.04883,0.07738 -0.550695,0.09053 -3.845792,0.10104 -2.187283,0.0057 -3.845958,-0.01125 -3.923109,-0.04282 z"
       id="path7-6" />
    <rect
       style="fill:#1a1a1a;fill-opacity:1;stroke:#000000;stroke-width:0;stroke-dasharray:none;stroke-opacity:1"
       id="rect6-54-7-9-9"
       width="40.200962"
       height="27.079235"
       x="7.1059728"
       y="53.003426"
       ry="1.4208242" />
    <rect
       style="fill:#cccccc;fill-opacity:1;stroke:#000000;stroke-width:0;stroke-dasharray:none;stroke-opacity:1"
       id="rect6-4-7-3-3-2"
       width="50.011307"
       height="1.5486882"
       x="2.2033999"
       y="79.949699"
       ry="0.081258327" />
    <rect
       style="fill:#00ccff;fill-opacity:1;stroke:#000000;stroke-width:0;stroke-dasharray:none;stroke-opacity:1"
       id="rect6-5-1-9-1-6"
       width="37.099037"
       height="23.903276"
       x="8.5681686"
       y="54.552731"
       ry="1.254184" />
    <path
       style="fill:#ffaaaa;fill-opacity:1;stroke:#000000;stroke-width:0;stroke-dasharray:none;stroke-opacity:1"
       id="path6-5-2-7-6"
       sodipodi:type="arc"
       sodipodi:cx="26.574242"
       sodipodi:cy="53.797363"
       sodipodi:rx="0.30676886"
       sodipodi:ry="0.35520604"
       sodipodi:start="3.17482"
       sodipodi:end="3.1616747"
       sodipodi:open="true"
       sodipodi:arc-type="arc"
       d="m 26.267642,53.785563 a 0.30676886,0.35520604 0 0 1 0.315783,-0.343247 0.30676886,0.35520604 0 0 1 0.297477,0.364514 0.30676886,0.35520604 0 0 1 -0.313828,0.345642 0.30676886,0.35520604 0 0 1 -0.299539,-0.362242" />
    <rect
       style="fill:#cccccc;fill-opacity:1;stroke:#000000;stroke-width:0;stroke-dasharray:none;stroke-opacity:1"
       id="rect6-4-4-32-7-8-4"
       width="50.011307"
       height="1.5486882"
       x="2.2095206"
       y="80.610641"
       ry="0.73134112" />
    <path
       id="rect6-4-4-3-2-2-4-9"
       style="fill:#666666;fill-opacity:1;stroke:#000000;stroke-width:0;stroke-dasharray:none;stroke-opacity:1"
       d="m 2.3450172,81.793731 c 0.02312,0.20789 0.1978887,0.36825 0.4110827,0.36825 H 51.688938 c 0.21319,0 0.387607,-0.16036 0.410757,-0.36825 z" />
    <rect
       style="fill:#999999;fill-opacity:1;stroke:#000000;stroke-width:0;stroke-dasharray:none;stroke-opacity:1"
       id="rect6-4-4-8-3-9-5-5"
       width="12.406287"
       height="0.80995715"
       x="21.36618"
       y="79.960556"
       ry="0.38248819" />
    <text
       xml:space="preserve"
       style="font-size:1.51498px;font-family:sans-serif;-inkscape-font-specification:'sans-serif, Normal';text-align:start;writing-mode:lr-tb;direction:ltr;text-anchor:start;fill:#1a1a1a;stroke-width:0.0227248"
       x="22.792633"
       y="77.133553"
       id="text3-9-3-8-3-0-0"><tspan
         sodipodi:role="line"
         style="fill:#1a1a1a;stroke-width:0.0227248"
         x="22.792633"
         y="77.133553"
         id="tspan1-4">Windows 11</tspan></text>
    <path
       style="fill:#ffffff;stroke-width:0.224535"
       d="m 34.428463,73.952004 c -0.392109,-0.0586 -1.033702,-0.136913 -1.425792,-0.17316 -1.277611,-0.118883 -5.248331,-0.692585 -5.343963,-0.771954 -0.08095,-0.06705 -0.09184,-0.478686 -0.09184,-3.453155 0,-3.277816 0.0038,-3.378709 0.114938,-3.438412 0.07569,-0.04038 1.400401,-0.06142 3.886996,-0.06142 3.349937,0 3.782536,0.0094 3.865435,0.09316 0.08301,0.08301 0.09334,0.520156 0.09334,3.916708 0,3.396568 -0.01125,3.83377 -0.09334,3.916725 -0.108925,0.108925 -0.08358,0.109683 -1.005699,-0.02873 z M 23.675572,72.584132 c -1.274304,-0.159825 -2.78292,-0.345456 -3.352489,-0.412184 -0.569569,-0.06667 -1.070851,-0.150623 -1.113916,-0.186308 -0.06292,-0.0522 -0.07833,-0.632504 -0.07833,-2.936905 0,-2.778581 0.0038,-2.873934 0.114938,-2.933451 0.0755,-0.04038 1.334854,-0.06142 3.67603,-0.06142 2.93345,0 3.57296,0.01315 3.628306,0.08113 0.04865,0.0586 0.06292,0.998469 0.05184,3.401151 l -0.01502,3.32015 -0.297041,0.0074 c -0.163393,0.0057 -1.339661,-0.121513 -2.613967,-0.281395 z m -4.425895,-7.464781 c -0.04902,-0.01877 -0.108747,-0.06329 -0.132781,-0.09916 -0.02386,-0.03606 -0.04413,-1.296671 -0.04451,-2.801605 -6.92e-4,-2.097755 0.01691,-2.759426 0.07343,-2.835414 0.05746,-0.07663 0.316253,-0.127335 1.14361,-0.223587 0.588124,-0.06836 2.205518,-0.266708 3.594182,-0.440545 1.686789,-0.211154 2.559351,-0.297772 2.628822,-0.260961 0.0971,0.05165 0.104047,0.271309 0.104047,3.32199 v 3.26683 l -0.152313,0.05803 c -0.161892,0.0614 -7.054268,0.07532 -7.214225,0.01502 z m 8.4508,-0.01691 -0.133721,-0.05447 v -3.319557 c 0,-3.087679 0.0074,-3.325858 0.104047,-3.409359 0.103112,-0.0894 3.859163,-0.62841 5.308938,-0.762357 0.34679,-0.03193 1.013513,-0.111369 1.481609,-0.176728 0.468077,-0.06517 0.857443,-0.118507 0.865276,-0.118507 0.0074,0 0.05634,0.04188 0.10761,0.09334 0.08301,0.08301 0.09316,0.513002 0.0924,3.846692 -4.51e-4,2.260755 -0.02328,3.788771 -0.05728,3.84243 -0.04883,0.07738 -0.550695,0.09053 -3.845792,0.10104 -2.187283,0.0057 -3.845958,-0.01125 -3.923109,-0.04282 z"
       id="path7-6-8" />
  </g>
</svg>
