<?xml version="1.0" encoding="UTF-8" standalone="no"?>
<!-- Created with Inkscape (http://www.inkscape.org/) -->

<svg
   width="297mm"
   height="210mm"
   viewBox="0 0 297 210"
   version="1.1"
   id="svg1"
   sodipodi:docname="20.2.2.3 - Listando repositórios.svg"
   inkscape:version="1.4.2 (2aeb623e1d, 2025-05-12)"
   xmlns:inkscape="http://www.inkscape.org/namespaces/inkscape"
   xmlns:sodipodi="http://sodipodi.sourceforge.net/DTD/sodipodi-0.dtd"
   xmlns="http://www.w3.org/2000/svg"
   xmlns:svg="http://www.w3.org/2000/svg">
  <sodipodi:namedview
     id="namedview1"
     pagecolor="#ffffff"
     bordercolor="#000000"
     borderopacity="0.25"
     inkscape:showpageshadow="2"
     inkscape:pageopacity="0.0"
     inkscape:pagecheckerboard="0"
     inkscape:deskcolor="#d1d1d1"
     inkscape:document-units="mm"
     inkscape:zoom="0.74386223"
     inkscape:cx="559.91551"
     inkscape:cy="278.9495"
     inkscape:window-width="1854"
     inkscape:window-height="1011"
     inkscape:window-x="66"
     inkscape:window-y="32"
     inkscape:window-maximized="1"
     inkscape:current-layer="layer1" />
  <defs
     id="defs1" />
  <g
     inkscape:label="Layer 1"
     inkscape:groupmode="layer"
     id="layer1">
    <rect
       style="fill:#1a1a1a;fill-opacity:1;stroke:#000000;stroke-width:0;stroke-dasharray:none;stroke-opacity:1"
       id="rect6-54-7-9"
       width="40.200962"
       height="27.079235"
       x="7.7655497"
       y="2.8644087"
       ry="1.4208242" />
    <rect
       style="fill:#cccccc;fill-opacity:1;stroke:#000000;stroke-width:0;stroke-dasharray:none;stroke-opacity:1"
       id="rect6-4-7-3-3"
       width="50.011307"
       height="1.5486882"
       x="2.8629739"
       y="29.810682"
       ry="0.081258327" />
    <rect
       style="fill:#d5f6ff;fill-opacity:1;stroke:#000000;stroke-width:0;stroke-dasharray:none;stroke-opacity:1"
       id="rect6-5-1-9-1"
       width="37.099037"
       height="23.903276"
       x="9.2277441"
       y="4.4137173"
       ry="1.254184" />
    <rect
       style="fill:#d5f6ff;fill-opacity:1;stroke:#000000;stroke-width:0;stroke-dasharray:none;stroke-opacity:1"
       id="rect8-3-7"
       width="16.440834"
       height="18.866671"
       x="18.982069"
       y="6.15518" />
    <path
       style="fill:#93a7ac;stroke-width:0.521581"
       d="m 28.687464,24.262597 c -0.09293,-0.274338 -0.47769,-2.608133 -0.51765,-3.139521 l -0.036,-0.483024 -1.863016,-0.08677 c -2.400872,-0.111573 -4.317308,-0.564808 -6.106371,-1.443838 -0.860475,-0.422797 -1.119697,-0.819759 -0.724133,-1.108989 0.202185,-0.147806 0.344819,-0.124244 0.879384,0.144967 1.678832,0.845569 3.792912,1.351265 6.45338,1.543691 1.452726,0.105089 1.348382,0.202202 1.498119,-1.395114 0.04979,-0.5313 0.123578,-1.105745 0.164041,-1.276511 0.07314,-0.309131 0.06617,-0.310509 -1.631963,-0.312623 -0.938027,-0.001 -1.790165,-0.05577 -1.893682,-0.12139 -0.146121,-0.09244 -0.166604,-0.346531 -0.09179,-1.136393 0.265417,-2.798392 1.258487,-5.7520903 2.789496,-8.2967513 0.407062,-0.676571 0.536949,-0.793506 0.881443,-0.793506 0.222214,0 0.403981,0.03735 0.403981,0.08297 0,0.04575 -0.334147,0.682093 -0.742508,1.414505 -1.327866,2.3813623 -2.212959,4.9862073 -2.386714,7.0242463 l -0.08514,1.000502 h 1.818595 c 1.377249,0 1.835526,0.04412 1.888363,0.181797 0.03843,0.100147 -0.02562,0.729141 -0.14239,1.398117 -0.116605,0.66894 -0.212095,1.434021 -0.212095,1.700209 v 0.483913 l 0.724506,-0.0853 c 1.177643,-0.138827 2.860788,-0.621543 3.947385,-1.131909 1.141558,-0.536185 1.334694,-0.570356 1.454867,-0.257193 0.122767,0.320074 0.0097,0.43338 -0.858269,0.871434 -1.08131,0.544763 -2.778679,1.060827 -4.147413,1.260936 l -1.149376,0.168077 0.09455,0.883262 c 0.0519,0.485801 0.204731,1.345676 0.339386,1.910828 0.134607,0.565168 0.212289,1.060096 0.17254,1.099811 -0.145472,0.145471 -0.86461,0.06714 -0.921307,-0.100224 z M 22.020076,11.987353 c -0.171437,-0.171435 -0.231393,-1.71037 -0.0819,-2.1001023 0.108496,-0.282997 0.689914,-0.282997 0.798507,0 0.135741,0.3539623 0.09568,1.7094343 -0.05903,1.9987883 -0.162776,0.304159 -0.415738,0.343122 -0.657543,0.101361 z m 9.029062,-0.183355 c -0.04752,-0.123971 -0.0866,-0.585531 -0.0866,-1.025437 0,-0.8439593 0.218678,-1.2141093 0.625092,-1.0581423 0.173723,0.06672 0.206953,0.2864433 0.174258,1.1539393 -0.03681,0.971998 -0.06746,1.075492 -0.333256,1.113396 -0.172765,0.02479 -0.328455,-0.0506 -0.379524,-0.183756 z"
       id="path5-9" />
    <path
       style="fill:#ffaaaa;fill-opacity:1;stroke:#000000;stroke-width:0;stroke-dasharray:none;stroke-opacity:1"
       id="path6-5-2-7"
       sodipodi:type="arc"
       sodipodi:cx="27.233829"
       sodipodi:cy="3.6583464"
       sodipodi:rx="0.30676886"
       sodipodi:ry="0.35520604"
       sodipodi:start="3.17482"
       sodipodi:end="3.1616747"
       sodipodi:open="true"
       sodipodi:arc-type="arc"
       d="M 26.92723,3.646546 A 0.30676886,0.35520604 0 0 1 27.243013,3.3032996 0.30676886,0.35520604 0 0 1 27.540489,3.6678132 0.30676886,0.35520604 0 0 1 27.226661,4.0134555 0.30676886,0.35520604 0 0 1 26.927122,3.6512136" />
    <rect
       style="fill:#cccccc;fill-opacity:1;stroke:#000000;stroke-width:0;stroke-dasharray:none;stroke-opacity:1"
       id="rect6-4-4-32-7-8"
       width="50.011307"
       height="1.5486882"
       x="2.8690937"
       y="30.471632"
       ry="0.73134112" />
    <path
       id="rect6-4-4-3-2-2-4"
       style="fill:#666666;fill-opacity:1;stroke:#000000;stroke-width:0;stroke-dasharray:none;stroke-opacity:1"
       d="m 3.004596,31.654721 c 0.02312,0.20789 0.197889,0.36825 0.4110827,0.36825 H 52.34852 c 0.21319,0 0.387607,-0.16036 0.410757,-0.36825 z" />
    <rect
       style="fill:#999999;fill-opacity:1;stroke:#000000;stroke-width:0;stroke-dasharray:none;stroke-opacity:1"
       id="rect6-4-4-8-3-9-5"
       width="12.406287"
       height="0.80995715"
       x="22.025768"
       y="29.821539"
       ry="0.38248819" />
    <text
       xml:space="preserve"
       style="font-size:1.51498px;font-family:sans-serif;-inkscape-font-specification:'sans-serif, Normal';text-align:start;writing-mode:lr-tb;direction:ltr;text-anchor:start;fill:#1a1a1a;stroke-width:0.0227248"
       x="25.56889"
       y="26.994535"
       id="text3-9-3-8-3-0"><tspan
         sodipodi:role="line"
         style="fill:#1a1a1a;stroke-width:0.0227248"
         x="25.56889"
         y="26.994535"
         id="tspan1">MacOS</tspan></text>
    <rect
       style="fill:#ffe6d5;stroke:#000000;stroke-width:0"
       id="rect7-7-8-6"
       width="90.894341"
       height="12.496944"
       x="53.9688"
       y="9.1565075"
       ry="2.7040544" />
    <text
       xml:space="preserve"
       style="font-size:10.5065px;font-family:sans-serif;-inkscape-font-specification:'sans-serif, Normal';text-align:start;writing-mode:lr-tb;direction:ltr;text-anchor:start;fill:#1a1a1a;stroke-width:0.157596"
       x="56.633808"
       y="19.076399"
       id="text3-9-2-1-2-1"><tspan
         sodipodi:role="line"
         style="fill:#1a1a1a;stroke-width:0.157596"
         x="56.633808"
         y="19.076399"
         id="tspan12-0"> MacOS - amd64 </tspan><tspan
         sodipodi:role="line"
         style="fill:#1a1a1a;stroke-width:0.157596"
         x="56.633808"
         y="32.209526"
         id="tspan4-65-4-5-6" /></text>
    <rect
       style="fill:#1a1a1a;fill-opacity:1;stroke:#000000;stroke-width:0;stroke-dasharray:none;stroke-opacity:1"
       id="rect6-54-7-9-9"
       width="40.200962"
       height="27.079235"
       x="9.1358624"
       y="52.38752"
       ry="1.4208242" />
    <rect
       style="fill:#cccccc;fill-opacity:1;stroke:#000000;stroke-width:0;stroke-dasharray:none;stroke-opacity:1"
       id="rect6-4-7-3-3-3"
       width="50.011307"
       height="1.5486882"
       x="4.2332554"
       y="79.333786"
       ry="0.081258327" />
    <rect
       style="fill:#d5f6ff;fill-opacity:1;stroke:#000000;stroke-width:0;stroke-dasharray:none;stroke-opacity:1"
       id="rect6-5-1-9-1-7"
       width="37.099037"
       height="23.903276"
       x="10.598041"
       y="53.936825"
       ry="1.254184" />
    <rect
       style="fill:#d5f6ff;fill-opacity:1;stroke:#000000;stroke-width:0;stroke-dasharray:none;stroke-opacity:1"
       id="rect8-3-7-4"
       width="16.440834"
       height="18.866671"
       x="20.352365"
       y="55.678288" />
    <path
       style="fill:#93a7ac;stroke-width:0.521581"
       d="m 30.057619,73.7857 c -0.0929,-0.274338 -0.477687,-2.608133 -0.517647,-3.139521 l -0.036,-0.483024 -1.863011,-0.08677 C 25.240106,69.964812 23.323685,69.511577 21.534627,68.632547 20.67416,68.20975 20.414943,67.812788 20.8105,67.523558 c 0.20218,-0.147806 0.344817,-0.124244 0.879374,0.144967 1.678831,0.845569 3.792899,1.351265 6.453344,1.543691 1.452724,0.105089 1.348384,0.202202 1.498111,-1.395114 0.0498,-0.5313 0.12358,-1.105745 0.16404,-1.276511 0.0731,-0.309131 0.0662,-0.310509 -1.631951,-0.312623 -0.938024,-0.001 -1.790148,-0.05577 -1.893668,-0.12139 -0.14612,-0.09244 -0.16661,-0.346531 -0.0918,-1.136393 0.265417,-2.798392 1.258484,-5.75209 2.789485,-8.296751 0.407057,-0.676571 0.536937,-0.793506 0.881434,-0.793506 0.22221,0 0.403977,0.03735 0.403977,0.08297 0,0.04575 -0.334147,0.682093 -0.742504,1.414505 -1.327854,2.381362 -2.212948,4.986207 -2.386698,7.024246 l -0.0851,1.000502 h 1.818581 c 1.377241,0 1.835518,0.04412 1.888348,0.181797 0.0384,0.100147 -0.0256,0.729141 -0.142377,1.398117 -0.11661,0.66894 -0.2121,1.434021 -0.2121,1.700209 v 0.483913 l 0.724507,-0.0853 c 1.177631,-0.138827 2.860762,-0.621543 3.947356,-1.131909 1.141554,-0.536185 1.334684,-0.570356 1.454861,-0.257193 0.12276,0.320074 0.01,0.43338 -0.858264,0.871434 -1.081304,0.544763 -2.778665,1.060827 -4.147386,1.260936 l -1.149374,0.168077 0.0945,0.883262 c 0.0519,0.485801 0.20473,1.345676 0.339387,1.910828 0.1346,0.565168 0.21229,1.060096 0.17254,1.099811 -0.14548,0.145471 -0.864604,0.06714 -0.921304,-0.100224 z M 23.390265,61.510456 c -0.171427,-0.171435 -0.231387,-1.71037 -0.0819,-2.100102 0.1085,-0.282997 0.689917,-0.282997 0.798507,0 0.13574,0.353962 0.0957,1.709434 -0.059,1.998788 -0.16278,0.304159 -0.415737,0.343122 -0.657537,0.101361 z m 9.029009,-0.183355 c -0.0475,-0.123971 -0.0866,-0.585531 -0.0866,-1.025437 0,-0.843959 0.21868,-1.214109 0.625097,-1.058142 0.17372,0.06672 0.20695,0.286443 0.17425,1.153939 -0.0368,0.971998 -0.0675,1.075492 -0.33325,1.113396 -0.172767,0.02479 -0.328457,-0.0506 -0.379527,-0.183756 z"
       id="path5-9-5" />
    <path
       style="fill:#ffaaaa;fill-opacity:1;stroke:#000000;stroke-width:0;stroke-dasharray:none;stroke-opacity:1"
       id="path6-5-2-7-2"
       sodipodi:type="arc"
       sodipodi:cx="28.604141"
       sodipodi:cy="53.181458"
       sodipodi:rx="0.30676886"
       sodipodi:ry="0.35520604"
       sodipodi:start="3.17482"
       sodipodi:end="3.1616747"
       sodipodi:open="true"
       sodipodi:arc-type="arc"
       d="m 28.297542,53.169657 a 0.30676886,0.35520604 0 0 1 0.315783,-0.343246 0.30676886,0.35520604 0 0 1 0.297476,0.364513 0.30676886,0.35520604 0 0 1 -0.313828,0.345643 0.30676886,0.35520604 0 0 1 -0.299539,-0.362242" />
    <rect
       style="fill:#cccccc;fill-opacity:1;stroke:#000000;stroke-width:0;stroke-dasharray:none;stroke-opacity:1"
       id="rect6-4-4-32-7-8-5"
       width="50.011307"
       height="1.5486882"
       x="4.2393827"
       y="79.994736"
       ry="0.73134112" />
    <path
       id="rect6-4-4-3-2-2-4-4"
       style="fill:#666666;fill-opacity:1;stroke:#000000;stroke-width:0;stroke-dasharray:none;stroke-opacity:1"
       d="m 4.3748963,81.177824 c 0.0231,0.20789 0.19789,0.36825 0.4110767,0.36825 h 48.932571 c 0.21319,0 0.387597,-0.16036 0.410747,-0.36825 z" />
    <rect
       style="fill:#999999;fill-opacity:1;stroke:#000000;stroke-width:0;stroke-dasharray:none;stroke-opacity:1"
       id="rect6-4-4-8-3-9-5-7"
       width="12.406287"
       height="0.80995715"
       x="23.396049"
       y="79.344643"
       ry="0.38248819" />
    <text
       xml:space="preserve"
       style="font-size:1.51498px;font-family:sans-serif;-inkscape-font-specification:'sans-serif, Normal';text-align:start;writing-mode:lr-tb;direction:ltr;text-anchor:start;fill:#1a1a1a;stroke-width:0.0227248"
       x="26.939186"
       y="76.517639"
       id="text3-9-3-8-3-0-4"><tspan
         sodipodi:role="line"
         style="fill:#1a1a1a;stroke-width:0.0227248"
         x="26.939186"
         y="76.517639"
         id="tspan1-4">MacOS</tspan></text>
    <rect
       style="fill:#decd87;stroke:#000000;stroke-width:0"
       id="rect7-7-8-6-3"
       width="90.894341"
       height="12.496944"
       x="55.339439"
       y="58.679615"
       ry="2.7040544" />
    <text
       xml:space="preserve"
       style="font-size:10.5065px;font-family:sans-serif;-inkscape-font-specification:'sans-serif, Normal';text-align:start;writing-mode:lr-tb;direction:ltr;text-anchor:start;fill:#1a1a1a;stroke-width:0.157596"
       x="58.004486"
       y="68.599503"
       id="text3-9-2-1-2-1-0"><tspan
         sodipodi:role="line"
         style="fill:#1a1a1a;stroke-width:0.157596"
         x="58.004486"
         y="68.599503"
         id="tspan12-0-7"> MacOS - arm64 </tspan><tspan
         sodipodi:role="line"
         style="fill:#1a1a1a;stroke-width:0.157596"
         x="58.004486"
         y="81.732628"
         id="tspan4-65-4-5-6-8" /></text>
  </g>
</svg>
