<?xml version="1.0" encoding="UTF-8" standalone="no"?>
<!-- Created with Inkscape (http://www.inkscape.org/) -->

<svg
   width="297mm"
   height="210mm"
   viewBox="0 0 297 210"
   version="1.1"
   id="svg1"
   inkscape:version="1.4.1-rc (06eac75fbf, 2025-03-29)"
   sodipodi:docname="20.3.1 - Template group.svg"
   xmlns:inkscape="http://www.inkscape.org/namespaces/inkscape"
   xmlns:sodipodi="http://sodipodi.sourceforge.net/DTD/sodipodi-0.dtd"
   xmlns="http://www.w3.org/2000/svg"
   xmlns:svg="http://www.w3.org/2000/svg">
  <sodipodi:namedview
     id="namedview1"
     pagecolor="#ffffff"
     bordercolor="#000000"
     borderopacity="0.25"
     inkscape:showpageshadow="2"
     inkscape:pageopacity="0.0"
     inkscape:pagecheckerboard="0"
     inkscape:deskcolor="#d1d1d1"
     inkscape:document-units="mm"
     inkscape:zoom="1.0519801"
     inkscape:cx="633.56714"
     inkscape:cy="416.833"
     inkscape:window-width="1854"
     inkscape:window-height="1011"
     inkscape:window-x="66"
     inkscape:window-y="32"
     inkscape:window-maximized="1"
     inkscape:current-layer="layer1" />
  <defs
     id="defs1" />
  <g
     inkscape:label="Layer 1"
     inkscape:groupmode="layer"
     id="layer1">
    <path
       id="rect1-7"
       style="fill:#cccccc;fill-rule:nonzero;stroke:#000000;stroke-width:0.589575;stroke-dasharray:none"
       d="M 68.690462,23.74198 50.736629,33.789597 h -0.04962 V 196.16101 h 60.092901 v -0.0601 l 0.0344,0.0479 17.96776,-10.05545 -0.0144,-0.02 h 0.0749 V 33.55326 h -0.084 V 23.83077 H 68.754443 Z" />
    <rect
       style="fill:#1a1a1a;fill-rule:evenodd;stroke:#000000;stroke-width:7.30274e-10"
       id="rect1"
       width="0.65403104"
       height="162.26564"
       x="110.21964"
       y="33.843086" />
    <rect
       style="fill:#fff6d5;fill-rule:nonzero;stroke:#000000;stroke-width:0.50535;stroke-dasharray:none"
       id="rect2"
       width="55.122448"
       height="34.751102"
       x="53.076965"
       y="39.349239" />
    <rect
       style="fill:#1a1a1a;fill-rule:evenodd;stroke:#000000;stroke-width:6.51355e-10"
       id="rect2-29"
       width="60.047588"
       height="0.53991348"
       x="50.743477"
       y="33.82835" />
    <rect
       style="fill:#fff6d5;fill-rule:nonzero;stroke:#000000;stroke-width:0.50535;stroke-dasharray:none"
       id="rect2-2"
       width="55.122448"
       height="34.751102"
       x="53.032822"
       y="116.31168" />
    <rect
       style="fill:#fff6d5;fill-rule:nonzero;stroke:#000000;stroke-width:0.50535;stroke-dasharray:none"
       id="rect2-6"
       width="55.122448"
       height="34.751102"
       x="53.124004"
       y="154.77852" />
    <rect
       style="fill:#666666;fill-rule:evenodd;stroke:#000000;stroke-width:5.00676e-09"
       id="rect2-3"
       width="55.122448"
       height="34.751102"
       x="52.819317"
       y="77.068336" />
    <path
       id="rect1-2-5-0-3"
       style="fill:#deaa87;stroke:#000000;stroke-width:0.151031;stroke-dasharray:none;stroke-opacity:1"
       d="m 60.137489,63.968023 c -1.143626,0 -2.107306,0.734695 -2.437369,1.755341 h -1.208674 c -0.05537,0 -0.109993,0.0042 -0.163216,0.01086 v 4.405542 H 88.938917 V 65.723347 H 72.812242 c -0.330062,-1.020646 -1.293736,-1.75534 -2.437369,-1.75534 z" />
    <path
       id="rect1-2-4-2"
       style="fill:#deaa87;stroke:#000000;stroke-width:0.317328;stroke-dasharray:none;stroke-opacity:1"
       d="m 99.739296,56.302456 c 1.136874,0 2.094954,0.730503 2.423064,1.745127 h 1.20162 c 0.62946,0 1.13624,0.501543 1.13624,1.124529 v 27.147647 c 0,0.06359 -0.006,0.126009 -0.0154,0.186685 v 1.179654 H 53.071913 V 70.47194 h 0.01548 V 59.172112 c 0,-0.622986 0.506771,-1.124529 1.136243,-1.124529 h 32.915523 c 0.328112,-1.014624 1.286191,-1.745127 2.423068,-1.745127 z" />
    <path
       id="path11"
       style="fill:#deaa87;stroke:#000000;stroke-width:0.3369;stroke-dasharray:none;stroke-opacity:1"
       inkscape:transform-center-x="-67.78688"
       inkscape:transform-center-y="-3.0715931"
       d="m 73.632413,58.869307 c -1.13557,0 -2.093823,0.724579 -2.430405,1.734006 h -3.333537 c -3.2e-4,-8.42e-4 -5.84e-4,-0.0017 -8.42e-4,-0.0034 H 52.757248 c -3.28e-4,8.42e-4 -5.83e-4,0.0017 -8.42e-4,0.0034 h -1.208674 c -0.63322,0 -1.143387,0.504507 -1.143387,1.1312 v 27.308988 c 0,0.06401 0.0051,0.126548 0.01567,0.187586 v 1.186914 H 102.13836 V 73.101359 h -0.0157 V 61.734513 c 0,-0.626693 -0.50974,-1.1312 -1.14295,-1.1312 H 86.300257 c -0.33659,-1.009427 -1.294843,-1.734006 -2.430405,-1.734006 z" />
    <path
       id="rect1-2-7"
       style="fill:#deaa87;stroke:#000000;stroke-width:0.319213;stroke-dasharray:none;stroke-opacity:1"
       d="m 51.953209,62.658022 c -1.143635,0 -2.107404,0.734846 -2.437465,1.755501 h -1.208746 c -0.63322,0 -1.142999,0.504516 -1.142999,1.131208 v 27.308912 c 0,0.06401 0.0051,0.126759 0.0155,0.187797 v 1.18667 H 98.89778 V 76.911686 H 98.8822 V 65.544731 c 0,-0.626692 -0.50978,-1.131208 -1.142991,-1.131208 h -33.11106 c -0.330061,-1.020655 -1.29383,-1.755501 -2.437463,-1.755501 z" />
    <text
       xml:space="preserve"
       style="font-style:normal;font-variant:normal;font-weight:normal;font-stretch:normal;font-size:6.74433px;font-family:'Liberation Sans';-inkscape-font-specification:'Liberation Sans, Normal';font-variant-ligatures:normal;font-variant-caps:normal;font-variant-numeric:normal;font-variant-east-asian:normal;text-align:center;writing-mode:lr-tb;direction:ltr;text-anchor:middle;fill:#1a1a1a;stroke:#000000;stroke-width:0;stroke-dasharray:none;stroke-opacity:1"
       x="73.330566"
       y="71.426559"
       id="text2-5-2"
       transform="rotate(-0.25961421)"><tspan
         sodipodi:role="line"
         id="tspan1-9"
         x="73.330566"
         y="71.426559"
         style="stroke-width:0">Projeto </tspan><tspan
         sodipodi:role="line"
         x="73.330566"
         y="79.856972"
         style="stroke-width:0"
         id="tspan11">casa popular</tspan></text>
    <text
       xml:space="preserve"
       style="font-style:normal;font-variant:normal;font-weight:normal;font-stretch:normal;font-size:1.42755px;font-family:'Liberation Sans';-inkscape-font-specification:'Liberation Sans, Normal';font-variant-ligatures:normal;font-variant-caps:normal;font-variant-numeric:normal;font-variant-east-asian:normal;text-align:center;writing-mode:lr-tb;direction:ltr;text-anchor:middle;fill:#1a1a1a;stroke:#000000;stroke-width:0;stroke-dasharray:none;stroke-opacity:1"
       x="56.071136"
       y="65.431732"
       id="text2-5-0"
       transform="rotate(-0.67135653)"><tspan
         sodipodi:role="line"
         id="tspan1-0"
         x="56.071136"
         y="65.431732"
         style="stroke-width:0">Projeto casa popular</tspan></text>
    <text
       xml:space="preserve"
       style="font-style:normal;font-variant:normal;font-weight:normal;font-stretch:normal;font-size:1.25093px;font-family:'Liberation Sans';-inkscape-font-specification:'Liberation Sans, Normal';font-variant-ligatures:normal;font-variant-caps:normal;font-variant-numeric:normal;font-variant-east-asian:normal;text-align:center;writing-mode:lr-tb;direction:ltr;text-anchor:middle;fill:#1a1a1a;stroke:#000000;stroke-width:0;stroke-dasharray:none;stroke-opacity:1"
       x="78.04023"
       y="61.598148"
       id="text2-5-9-9"
       transform="rotate(-0.67135653)"><tspan
         sodipodi:role="line"
         id="tspan1-23-65"
         x="78.04023"
         y="61.598148"
         style="stroke-width:0">Projeto casa 3 quartos</tspan></text>
    <text
       xml:space="preserve"
       style="font-style:normal;font-variant:normal;font-weight:normal;font-stretch:normal;font-size:1.25093px;font-family:'Liberation Sans';-inkscape-font-specification:'Liberation Sans, Normal';font-variant-ligatures:normal;font-variant-caps:normal;font-variant-numeric:normal;font-variant-east-asian:normal;text-align:center;writing-mode:lr-tb;direction:ltr;text-anchor:middle;fill:#1a1a1a;stroke:#000000;stroke-width:0;stroke-dasharray:none;stroke-opacity:1"
       x="93.934914"
       y="59.094288"
       id="text2-5-9-1-2"
       transform="rotate(-0.67135653)"><tspan
         sodipodi:role="line"
         id="tspan1-23-6-3"
         x="93.934914"
         y="59.094288"
         style="stroke-width:0">Projeto casa geminada</tspan></text>
    <path
       id="rect2-3-5-5"
       style="fill:#fff6d5;fill-rule:nonzero;stroke:#000000;stroke-width:0.50535;stroke-dasharray:none"
       d="m 107.56575,84.957909 -11.536597,5.39529 h -0.02046 v 12.521981 l -0.05353,0.0252 v 13.53872 l 0.05658,0.11969 11.486977,-5.43446 -0.0348,-0.074 h 0.0984 V 98.644605 l 0.003,-0.0018 z" />
    <rect
       style="fill:#fff6d5;fill-rule:nonzero;stroke:#000000;stroke-width:0.50535;stroke-dasharray:none"
       id="rect2-2-9"
       width="55.122448"
       height="34.751102"
       x="40.839081"
       y="81.986305" />
    <rect
       style="fill:#f2f2f2;fill-rule:nonzero;stroke:#000000;stroke-width:0.50535;stroke-dasharray:none"
       id="rect3-4-6"
       width="14.192533"
       height="2.2468393"
       x="73.536102"
       y="42.691242" />
    <rect
       style="fill:#f2f2f2;fill-rule:nonzero;stroke:#000000;stroke-width:0.50535;stroke-dasharray:none"
       id="rect3-4-2"
       width="14.192533"
       height="2.2468393"
       x="73.518433"
       y="161.88641" />
    <rect
       style="fill:#f2f2f2;fill-rule:nonzero;stroke:#000000;stroke-width:0.50535;stroke-dasharray:none"
       id="rect3-4-1"
       width="14.192533"
       height="2.2468393"
       x="73.507835"
       y="121.7657" />
    <rect
       style="fill:#f2f2f2;fill-rule:nonzero;stroke:#000000;stroke-width:0.50535;stroke-dasharray:none"
       id="rect3-4-1-2"
       width="14.192533"
       height="2.2468393"
       x="60.073544"
       y="85.726028" />
    <rect
       style="fill:#1a1a1a;fill-rule:nonzero;stroke:#000000;stroke-width:1.37781e-09;stroke-dasharray:none"
       id="rect7"
       width="20.670918"
       height="0.54165471"
       x="80.155212"
       y="83.384453"
       transform="rotate(-29.111248)" />
    <rect
       style="fill:#fff6d5;fill-rule:nonzero;stroke:#000000;stroke-width:0;stroke-dasharray:none"
       id="rect9"
       width="0.35746989"
       height="0.60902274"
       x="106.94424"
       y="110.30318" />
    <rect
       style="fill:#fff6d5;fill-rule:nonzero;stroke:#000000;stroke-width:0;stroke-dasharray:none"
       id="rect9-3"
       width="0.35746989"
       height="0.60902274"
       x="145.39752"
       y="-50.79002"
       transform="rotate(65.157186)" />
  </g>
</svg>
