<?xml version="1.0" encoding="UTF-8" standalone="no"?>
<!-- Created with Inkscape (http://www.inkscape.org/) -->

<svg
   width="297mm"
   height="210mm"
   viewBox="0 0 297 210"
   version="1.1"
   id="svg1"
   inkscape:version="1.4.2 (2aeb623e1d, 2025-05-12)"
   sodipodi:docname="20.7.5.5.1 - Trigger para efetuar o monitoramento de espaço em disco em GB em dias específicos da semana.svg"
   xmlns:inkscape="http://www.inkscape.org/namespaces/inkscape"
   xmlns:sodipodi="http://sodipodi.sourceforge.net/DTD/sodipodi-0.dtd"
   xmlns="http://www.w3.org/2000/svg"
   xmlns:svg="http://www.w3.org/2000/svg">
  <sodipodi:namedview
     id="namedview1"
     pagecolor="#ffffff"
     bordercolor="#000000"
     borderopacity="0.25"
     inkscape:showpageshadow="2"
     inkscape:pageopacity="0.0"
     inkscape:pagecheckerboard="0"
     inkscape:deskcolor="#d1d1d1"
     inkscape:document-units="mm"
     inkscape:zoom="1.4307099"
     inkscape:cx="524.56477"
     inkscape:cy="357.51483"
     inkscape:window-width="1920"
     inkscape:window-height="1043"
     inkscape:window-x="1920"
     inkscape:window-y="0"
     inkscape:window-maximized="1"
     inkscape:current-layer="layer1" />
  <defs
     id="defs1" />
  <g
     inkscape:label="Layer 1"
     inkscape:groupmode="layer"
     id="layer1">
    <rect
       style="fill:#e9afaf;stroke:#000000;stroke-width:0"
       id="rect11"
       width="61.721695"
       height="11.134391"
       x="143.55383"
       y="47.118992"
       ry="0.01947787" />
    <rect
       style="fill:#b3b3b3;stroke:#000000;stroke-width:0"
       id="rect11-9"
       width="26.414789"
       height="11.134391"
       x="205.01953"
       y="47.084003"
       ry="0.01947787" />
    <text
       xml:space="preserve"
       style="font-size:8.59033px;font-family:'Liberation Sans';-inkscape-font-specification:'Liberation Sans, Normal';text-align:end;writing-mode:lr-tb;direction:ltr;text-anchor:end;fill:#1a1a1a;stroke:#000000;stroke-width:0"
       x="189.24808"
       y="55.484745"
       id="text11"><tspan
         sodipodi:role="line"
         id="tspan11"
         style="fill:#1a1a1a;stroke-width:0"
         x="189.24808"
         y="55.484745">85 GB</tspan></text>
    <text
       xml:space="preserve"
       style="font-size:8.59033px;font-family:'Liberation Sans';-inkscape-font-specification:'Liberation Sans, Normal';text-align:end;writing-mode:lr-tb;direction:ltr;text-anchor:end;fill:#1a1a1a;stroke:#000000;stroke-width:0"
       x="221.61069"
       y="69.13916"
       id="text11-7"><tspan
         sodipodi:role="line"
         id="tspan11-4"
         style="fill:#1a1a1a;stroke-width:0"
         x="221.61069"
         y="69.13916">Diretório raiz (/)</tspan></text>
    <text
       xml:space="preserve"
       style="font-size:5.23751px;font-family:'Liberation Sans';-inkscape-font-specification:'Liberation Sans, Normal';text-align:end;writing-mode:lr-tb;direction:ltr;text-anchor:end;fill:#1a1a1a;stroke:#000000;stroke-width:0"
       x="114.42323"
       y="121.60217"
       id="text11-7-1"><tspan
         sodipodi:role="line"
         id="tspan11-4-2"
         style="fill:#1a1a1a;stroke-width:0"
         x="114.42323"
         y="121.60217">Linha do tempo | Dias da semana</tspan></text>
    <text
       xml:space="preserve"
       style="font-size:8.59033px;font-family:'Liberation Sans';-inkscape-font-specification:'Liberation Sans, Normal';text-align:end;writing-mode:lr-tb;direction:ltr;text-anchor:end;fill:#1a1a1a;stroke:#000000;stroke-width:0"
       x="230.30615"
       y="55.530506"
       id="text11-0"><tspan
         sodipodi:role="line"
         id="tspan11-7"
         style="fill:#1a1a1a;stroke-width:0"
         x="230.30615"
         y="55.530506">15 GB</tspan></text>
    <rect
       style="fill:#4d4d4d;stroke:#000000;stroke-width:0"
       id="rect1-90-7"
       width="38.772812"
       height="57.525677"
       x="241.42926"
       y="36.329514"
       ry="5.0683436" />
    <rect
       style="fill:#808080;stroke:#000000;stroke-width:0"
       id="rect1-90"
       width="38.772812"
       height="57.525677"
       x="239.25067"
       y="34.417267"
       ry="5.0683436" />
    <path
       id="rect1-9-2"
       style="fill:#b3b3b3;stroke:#000000;stroke-width:0"
       d="m 240.54963,56.359727 v 28.122324 a 2.2963513,2.4943386 0 0 0 -3.6e-4,0.0119 l -6.6e-4,0.0326 a 2.2963513,2.4943386 0 0 0 2.24194,2.54374 2.2963513,2.4943386 0 0 0 0.22799,-0.007 v 0.003 h 6.65501 v -0.004 a 2.2963513,2.4943386 0 0 0 0.21417,0.0163 2.2963513,2.4943386 0 0 0 2.34695,-2.3657 c 0.2541,-0.89385 1.0407,-1.54186 1.97699,-1.54186 h 20.30456 a 2.2963513,2.4943386 0 0 0 0.0725,0.003 2.2963513,2.4943386 0 0 0 2.33763,-2.23443 h 0.003 v -0.0232 a 2.2963513,2.4943386 0 0 0 0.009,-0.16934 2.2963513,2.4943386 0 0 0 -0.009,-0.30241 V 68.78361 a 2.2963513,2.4943386 0 0 0 0.003,-0.0606 2.2963513,2.4943386 0 0 0 -0.003,-0.059 v -0.041 l -10e-4,-6.7e-4 a 2.2963513,2.4943386 0 0 0 -2.22328,-2.458953 2.2963513,2.4943386 0 0 0 -2.03054,1.19662 17.995767,18.502783 0 0 1 -14.55359,7.044173 17.995767,18.502783 0 0 1 -17.57002,-18.045063 z" />
    <path
       style="fill:#ffd5d5;stroke:#000000;stroke-width:0.21374;stroke-dasharray:none"
       id="path1-9-7-8"
       sodipodi:type="arc"
       sodipodi:cx="156.97862"
       sodipodi:cy="212.85936"
       sodipodi:rx="17.205162"
       sodipodi:ry="16.852234"
       sodipodi:start="3.17482"
       sodipodi:end="3.1616747"
       sodipodi:open="true"
       sodipodi:arc-type="arc"
       d="m 139.78296,212.29951 a 17.205162,16.852234 0 0 1 17.71073,-16.28483 17.205162,16.852234 0 0 1 16.68398,17.29382 17.205162,16.852234 0 0 1 -17.60107,16.39849 17.205162,16.852234 0 0 1 -16.79967,-17.18603"
       transform="rotate(-41.597714)" />
    <path
       id="path1-9-7-2-3-3"
       style="fill:#cccccc;stroke:#000000;stroke-width:0.21374;stroke-dasharray:none"
       d="m 263.16442,51.322527 a 5.5226154,5.6382718 48.402286 0 1 0.0989,0.11456 5.5226154,5.6382718 48.402286 0 1 -0.59951,7.7198 l 7.36841,8.29992 a 16.852235,17.205162 48.402286 0 0 1.84383,-23.56985 16.852235,17.205162 48.402286 0 0 -0.14493,-0.16969 z" />
    <rect
       style="fill:#cccccc;fill-rule:evenodd;stroke:#000000;stroke-width:0;stroke-dasharray:none"
       id="rect5-8"
       width="20.655031"
       height="0.49707678"
       x="153.41412"
       y="212.9315"
       transform="rotate(-41.597714)" />
    <path
       style="fill:#b3b3b3;stroke:#000000;stroke-width:0;stroke-dasharray:none"
       id="path1-9-7-9-0-0"
       sodipodi:type="arc"
       sodipodi:cx="157.12111"
       sodipodi:cy="213.11293"
       sodipodi:rx="5.7591619"
       sodipodi:ry="5.6410255"
       sodipodi:start="3.17482"
       sodipodi:end="3.1616747"
       sodipodi:open="true"
       sodipodi:arc-type="arc"
       d="m 151.36513,212.92553 a 5.7591619,5.6410255 0 0 1 5.92839,-5.4511 5.7591619,5.6410255 0 0 1 5.58471,5.78884 5.7591619,5.6410255 0 0 1 -5.89169,5.48915 5.7591619,5.6410255 0 0 1 -5.62343,-5.75277"
       transform="rotate(-41.597714)" />
    <path
       style="fill:#ffd5d5;stroke:#000000;stroke-width:0;stroke-dasharray:none"
       id="path1-9-7-9-3-4"
       sodipodi:type="arc"
       sodipodi:cx="157.078"
       sodipodi:cy="213.09438"
       sodipodi:rx="5.5194826"
       sodipodi:ry="5.4062624"
       sodipodi:start="3.17482"
       sodipodi:end="3.1616747"
       sodipodi:open="true"
       sodipodi:arc-type="arc"
       d="m 151.56157,212.91477 a 5.5194826,5.4062624 0 0 1 5.68167,-5.22423 5.5194826,5.4062624 0 0 1 5.35228,5.54792 5.5194826,5.4062624 0 0 1 -5.64649,5.2607 5.5194826,5.4062624 0 0 1 -5.3894,-5.51335"
       transform="rotate(-41.597714)" />
    <path
       style="fill:#999999;stroke:#000000;stroke-width:0;stroke-dasharray:none"
       id="path1-9-7-9-3-3-0"
       sodipodi:type="arc"
       sodipodi:cx="157.08179"
       sodipodi:cy="213.09636"
       sodipodi:rx="3.9803269"
       sodipodi:ry="3.8986795"
       sodipodi:start="3.17482"
       sodipodi:end="3.1616747"
       sodipodi:open="true"
       sodipodi:arc-type="arc"
       d="m 153.10366,212.96684 a 3.9803269,3.8986795 0 0 1 4.09728,-3.76741 3.9803269,3.8986795 0 0 1 3.85976,4.00084 3.9803269,3.8986795 0 0 1 -4.07192,3.7937 3.9803269,3.8986795 0 0 1 -3.88652,-3.9759"
       transform="rotate(-41.597714)" />
    <path
       style="fill:#e6e6e6;stroke:#000000;stroke-width:0;stroke-dasharray:none"
       id="path1-9-7-9-3-3-5-9"
       sodipodi:type="arc"
       sodipodi:cx="157.07599"
       sodipodi:cy="213.14433"
       sodipodi:rx="1.887886"
       sodipodi:ry="1.8491603"
       sodipodi:start="3.17482"
       sodipodi:end="3.1616747"
       sodipodi:open="true"
       sodipodi:arc-type="arc"
       d="m 155.18914,213.0829 a 1.887886,1.8491603 0 0 1 1.94337,-1.7869 1.887886,1.8491603 0 0 1 1.83069,1.89762 1.887886,1.8491603 0 0 1 -1.93132,1.79937 1.887886,1.8491603 0 0 1 -1.8434,-1.88579"
       transform="rotate(-41.597714)" />
    <path
       style="fill:#e6e6e6;stroke:#000000;stroke-width:0;stroke-dasharray:none"
       id="path1-9-7-9-3-3-5-8-1"
       sodipodi:type="arc"
       sodipodi:cx="156.8838"
       sodipodi:cy="190.64735"
       sodipodi:rx="1.6879437"
       sodipodi:ry="1.6533195"
       sodipodi:start="3.17482"
       sodipodi:end="3.1616747"
       sodipodi:open="true"
       sodipodi:arc-type="arc"
       d="m 155.19679,190.59243 a 1.6879437,1.6533195 0 0 1 1.73755,-1.59765 1.6879437,1.6533195 0 0 1 1.63681,1.69664 1.6879437,1.6533195 0 0 1 -1.72679,1.6088 1.6879437,1.6533195 0 0 1 -1.64816,-1.68607"
       transform="rotate(-41.597714)" />
    <path
       style="fill:#e6e6e6;stroke:#000000;stroke-width:0;stroke-dasharray:none"
       id="path1-9-7-9-3-3-5-8-2-9"
       sodipodi:type="arc"
       sodipodi:cx="134.67682"
       sodipodi:cy="215.6349"
       sodipodi:rx="1.6879437"
       sodipodi:ry="1.6533195"
       sodipodi:start="3.17482"
       sodipodi:end="3.1616747"
       sodipodi:open="true"
       sodipodi:arc-type="arc"
       d="m 132.98981,215.57998 a 1.6879437,1.6533195 0 0 1 1.73754,-1.59766 1.6879437,1.6533195 0 0 1 1.63681,1.69665 1.6879437,1.6533195 0 0 1 -1.72678,1.6088 1.6879437,1.6533195 0 0 1 -1.64816,-1.68607"
       transform="rotate(-41.597714)" />
    <path
       style="fill:#e6e6e6;stroke:#000000;stroke-width:0;stroke-dasharray:none"
       id="path1-9-7-9-3-3-5-5-6"
       sodipodi:type="arc"
       sodipodi:cx="157.05524"
       sodipodi:cy="210.24022"
       sodipodi:rx="0.78088897"
       sodipodi:ry="0.76487076"
       sodipodi:start="3.17482"
       sodipodi:end="3.1616747"
       sodipodi:open="true"
       sodipodi:arc-type="arc"
       d="m 156.27478,210.21481 a 0.78088897,0.76487076 0 0 1 0.80383,-0.73912 0.78088897,0.76487076 0 0 1 0.75724,0.78491 0.78088897,0.76487076 0 0 1 -0.79886,0.74428 0.78088897,0.76487076 0 0 1 -0.76248,-0.78002"
       transform="rotate(-41.597714)" />
    <path
       style="fill:#ececec;stroke:#000000;stroke-width:0;stroke-dasharray:none"
       id="path1-9-7-9-3-3-5-5-4-2"
       sodipodi:type="arc"
       sodipodi:cx="157.05611"
       sodipodi:cy="215.99248"
       sodipodi:rx="0.78088897"
       sodipodi:ry="0.76487076"
       sodipodi:start="3.17482"
       sodipodi:end="3.1616747"
       sodipodi:open="true"
       sodipodi:arc-type="arc"
       d="m 156.27565,215.96707 a 0.78088897,0.76487076 0 0 1 0.80383,-0.73912 0.78088897,0.76487076 0 0 1 0.75724,0.78491 0.78088897,0.76487076 0 0 1 -0.79886,0.74428 0.78088897,0.76487076 0 0 1 -0.76248,-0.78002"
       transform="rotate(-41.597714)" />
    <path
       style="fill:#e6e6e6;stroke:#000000;stroke-width:0;stroke-dasharray:none"
       id="path1-9-7-9-3-3-5-5-4-7-5"
       sodipodi:type="arc"
       sodipodi:cx="160.03011"
       sodipodi:cy="213.14055"
       sodipodi:rx="0.78088897"
       sodipodi:ry="0.76487076"
       sodipodi:start="3.17482"
       sodipodi:end="3.1616747"
       sodipodi:open="true"
       sodipodi:arc-type="arc"
       d="m 159.24965,213.11514 a 0.78088897,0.76487076 0 0 1 0.80383,-0.73912 0.78088897,0.76487076 0 0 1 0.75724,0.78491 0.78088897,0.76487076 0 0 1 -0.79886,0.74428 0.78088897,0.76487076 0 0 1 -0.76249,-0.78002"
       transform="rotate(-41.597714)" />
    <path
       style="fill:#e6e6e6;stroke:#000000;stroke-width:0;stroke-dasharray:none"
       id="path1-9-7-9-3-3-5-5-4-78-4"
       sodipodi:type="arc"
       sodipodi:cx="154.1897"
       sodipodi:cy="213.14632"
       sodipodi:rx="0.78088897"
       sodipodi:ry="0.76487076"
       sodipodi:start="3.17482"
       sodipodi:end="3.1616747"
       sodipodi:open="true"
       sodipodi:arc-type="arc"
       d="m 153.40924,213.12091 a 0.78088897,0.76487076 0 0 1 0.80383,-0.73912 0.78088897,0.76487076 0 0 1 0.75724,0.78491 0.78088897,0.76487076 0 0 1 -0.79886,0.74428 0.78088897,0.76487076 0 0 1 -0.76248,-0.78002"
       transform="rotate(-41.597714)" />
    <path
       style="fill:#e6e6e6;stroke:#000000;stroke-width:0;stroke-dasharray:none"
       id="path1-9-7-9-3-3-5-5-4-3-4"
       sodipodi:type="arc"
       sodipodi:cx="159.15919"
       sodipodi:cy="211.20692"
       sodipodi:rx="0.78088897"
       sodipodi:ry="0.76487076"
       sodipodi:start="3.17482"
       sodipodi:end="3.1616747"
       sodipodi:open="true"
       sodipodi:arc-type="arc"
       d="m 158.37874,211.18151 a 0.78088897,0.76487076 0 0 1 0.80383,-0.73911 0.78088897,0.76487076 0 0 1 0.75724,0.78491 0.78088897,0.76487076 0 0 1 -0.79886,0.74428 0.78088897,0.76487076 0 0 1 -0.76249,-0.78002"
       transform="rotate(-41.597714)" />
    <path
       style="fill:#e6e6e6;stroke:#000000;stroke-width:0;stroke-dasharray:none"
       id="path1-9-7-9-3-3-5-5-4-0-9"
       sodipodi:type="arc"
       sodipodi:cx="159.15302"
       sodipodi:cy="215.20146"
       sodipodi:rx="0.78088897"
       sodipodi:ry="0.76487076"
       sodipodi:start="3.17482"
       sodipodi:end="3.1616747"
       sodipodi:open="true"
       sodipodi:arc-type="arc"
       d="m 158.37256,215.17605 a 0.78088897,0.76487076 0 0 1 0.80383,-0.73912 0.78088897,0.76487076 0 0 1 0.75724,0.78492 0.78088897,0.76487076 0 0 1 -0.79886,0.74427 0.78088897,0.76487076 0 0 1 -0.76249,-0.78002"
       transform="rotate(-41.597714)" />
    <path
       style="fill:#e6e6e6;stroke:#000000;stroke-width:0;stroke-dasharray:none"
       id="path1-9-7-9-3-3-5-5-4-6-93"
       sodipodi:type="arc"
       sodipodi:cx="154.98476"
       sodipodi:cy="211.16966"
       sodipodi:rx="0.78088897"
       sodipodi:ry="0.76487076"
       sodipodi:start="3.17482"
       sodipodi:end="3.1616747"
       sodipodi:open="true"
       sodipodi:arc-type="arc"
       d="m 154.2043,211.14425 a 0.78088897,0.76487076 0 0 1 0.80383,-0.73912 0.78088897,0.76487076 0 0 1 0.75724,0.78492 0.78088897,0.76487076 0 0 1 -0.79886,0.74427 0.78088897,0.76487076 0 0 1 -0.76249,-0.78002"
       transform="rotate(-41.597714)" />
    <path
       style="fill:#ececec;stroke:#000000;stroke-width:0;stroke-dasharray:none"
       id="path1-9-7-9-3-3-5-5-4-04-6"
       sodipodi:type="arc"
       sodipodi:cx="155.12537"
       sodipodi:cy="215.2614"
       sodipodi:rx="0.78088897"
       sodipodi:ry="0.76487076"
       sodipodi:start="3.17482"
       sodipodi:end="3.1616747"
       sodipodi:open="true"
       sodipodi:arc-type="arc"
       d="m 154.34491,215.23599 a 0.78088897,0.76487076 0 0 1 0.80383,-0.73912 0.78088897,0.76487076 0 0 1 0.75724,0.78491 0.78088897,0.76487076 0 0 1 -0.79886,0.74428 0.78088897,0.76487076 0 0 1 -0.76249,-0.78002"
       transform="rotate(-41.597714)" />
    <rect
       style="fill:#cccccc;fill-rule:evenodd;stroke:#000000;stroke-width:0;stroke-dasharray:none"
       id="rect9-0"
       width="0.40986168"
       height="10.8803"
       x="156.99521"
       y="218.72481"
       transform="rotate(-41.597714)" />
    <rect
       style="fill:#000000;fill-rule:evenodd;stroke:#000000;stroke-width:0;stroke-dasharray:none"
       id="rect10-5"
       width="0.21324581"
       height="0.30044222"
       x="145.90042"
       y="208.29764"
       transform="matrix(0.76591044,-0.64294728,0.64146789,0.76714989,0,0)" />
    <rect
       style="fill:#666666;fill-rule:evenodd;stroke:#000000;stroke-width:0;stroke-dasharray:none"
       id="rect12-0"
       width="20.527409"
       height="8.1309862"
       x="254.38791"
       y="80.56572"
       ry="1.5995382" />
    <path
       style="fill:#e6e6e6;stroke:#000000;stroke-width:0;stroke-dasharray:none"
       id="path1-9-7-9-3-3-5-8-2-2-2"
       sodipodi:type="arc"
       sodipodi:cx="256.43735"
       sodipodi:cy="86.838089"
       sodipodi:rx="1.0214694"
       sodipodi:ry="1.0005164"
       sodipodi:start="3.17482"
       sodipodi:end="3.1616747"
       sodipodi:open="true"
       sodipodi:arc-type="arc"
       d="m 255.41644,86.804851 a 1.0214694,1.0005164 0 0 1 1.05149,-0.96683 1.0214694,1.0005164 0 0 1 0.99052,1.026733 1.0214694,1.0005164 0 0 1 -1.04497,0.973578 1.0214694,1.0005164 0 0 1 -0.9974,-1.020334" />
    <path
       style="fill:#e6e6e6;stroke:#000000;stroke-width:0;stroke-dasharray:none"
       id="path1-9-7-9-3-3-5-8-2-2-0-9"
       sodipodi:type="arc"
       sodipodi:cx="272.45099"
       sodipodi:cy="82.328949"
       sodipodi:rx="1.0214694"
       sodipodi:ry="1.0005164"
       sodipodi:start="3.17482"
       sodipodi:end="3.1616747"
       sodipodi:open="true"
       sodipodi:arc-type="arc"
       d="m 271.43008,82.295711 a 1.0214694,1.0005164 0 0 1 1.05149,-0.96683 1.0214694,1.0005164 0 0 1 0.99053,1.026733 1.0214694,1.0005164 0 0 1 -1.04498,0.973578 1.0214694,1.0005164 0 0 1 -0.99739,-1.020334" />
    <path
       id="rect13"
       style="fill:#cccccc;fill-rule:evenodd;stroke:#000000;stroke-width:0;stroke-dasharray:none"
       d="m 255.12929,63.543907 -10.39742,13.525766 a 3.1544415,3.2205024 75.777512 0 0 -0.10634,0.13796 l -0.11562,0.15058 0.009,0.005 a 3.1544415,3.2205024 75.777512 0 0 -0.4273,2.350758 l 0.009,0.0403 a 3.1544415,3.2205024 75.777512 0 0 3.83867,2.34587 3.1544415,3.2205024 75.777512 0 0 2.2321,-1.81 l 0.008,0.005 0.0204,-0.0691 a 3.1544415,3.2205024 75.777512 0 0 1.4e-4,-2.6e-4 3.1544415,3.2205024 75.777512 0 0 0.2085,-0.70591 3.1544415,3.2205024 75.777512 0 0 5.7e-4,-10e-4 z" />
    <path
       style="fill:#e6e6e6;stroke:#000000;stroke-width:0;stroke-dasharray:none"
       id="path1-9-7-9-3-3-5-8-2-9-1"
       sodipodi:type="arc"
       sodipodi:cx="106.14383"
       sodipodi:cy="236.84947"
       sodipodi:rx="1.3497126"
       sodipodi:ry="1.3220263"
       sodipodi:start="3.17482"
       sodipodi:end="3.1616747"
       sodipodi:open="true"
       sodipodi:arc-type="arc"
       d="m 104.79486,236.80555 a 1.3497126,1.3220263 0 0 1 1.38938,-1.27751 1.3497126,1.3220263 0 0 1 1.30882,1.35667 1.3497126,1.3220263 0 0 1 -1.38077,1.28643 1.3497126,1.3220263 0 0 1 -1.3179,-1.34822"
       transform="rotate(-48.200263)" />
    <rect
       style="fill:#333333;fill-opacity:1;stroke:#000000;stroke-width:0;stroke-dasharray:none;stroke-opacity:1"
       id="rect22-33-0"
       width="4.7291451"
       height="4.041595"
       x="97.788597"
       y="134.79727" />
    <rect
       style="fill:#1a1a1a;fill-opacity:1;stroke:#000000;stroke-width:0;stroke-dasharray:none;stroke-opacity:1"
       id="rect23-3-5"
       width="0.83541828"
       height="2.6879144"
       x="98.437828"
       y="135.51796" />
    <rect
       style="fill:#1a1a1a;fill-opacity:1;stroke:#000000;stroke-width:0;stroke-dasharray:none;stroke-opacity:1"
       id="rect23-6-7-6"
       width="2.7737508"
       height="0.91336387"
       x="98.447006"
       y="135.52202" />
    <rect
       style="fill:#333333;fill-opacity:1;stroke:#000000;stroke-width:0;stroke-dasharray:none;stroke-opacity:1"
       id="rect22-98-9-7"
       width="4.7291451"
       height="4.041595"
       x="97.784416"
       y="151.57652" />
    <rect
       style="fill:#1a1a1a;fill-opacity:1;stroke:#000000;stroke-width:0;stroke-dasharray:none;stroke-opacity:1"
       id="rect23-8-86-7"
       width="0.83541828"
       height="2.6879144"
       x="98.433838"
       y="152.29727" />
    <rect
       style="fill:#1a1a1a;fill-opacity:1;stroke:#000000;stroke-width:0;stroke-dasharray:none;stroke-opacity:1"
       id="rect23-6-58-7-4"
       width="2.7737508"
       height="0.91336387"
       x="98.442947"
       y="152.30139" />
    <rect
       style="fill:#333333;fill-opacity:1;stroke:#000000;stroke-width:0;stroke-dasharray:none;stroke-opacity:1"
       id="rect22-4-0-0"
       width="4.7291451"
       height="4.041595"
       x="97.784416"
       y="145.96432" />
    <rect
       style="fill:#1a1a1a;fill-opacity:1;stroke:#000000;stroke-width:0;stroke-dasharray:none;stroke-opacity:1"
       id="rect23-5-4-6"
       width="0.83541828"
       height="2.6879144"
       x="98.433952"
       y="146.6853" />
    <rect
       style="fill:#1a1a1a;fill-opacity:1;stroke:#000000;stroke-width:0;stroke-dasharray:none;stroke-opacity:1"
       id="rect23-6-2-8-4"
       width="2.7737508"
       height="0.91336387"
       x="98.442947"
       y="146.68921" />
    <rect
       style="fill:#333333;fill-opacity:1;stroke:#000000;stroke-width:0;stroke-dasharray:none;stroke-opacity:1"
       id="rect22-8-4-7"
       width="4.7291451"
       height="4.041595"
       x="97.792336"
       y="140.35286" />
    <rect
       style="fill:#1a1a1a;fill-opacity:1;stroke:#000000;stroke-width:0;stroke-dasharray:none;stroke-opacity:1"
       id="rect23-9-81-4"
       width="0.83541828"
       height="2.6879144"
       x="98.441727"
       y="141.07359" />
    <rect
       style="fill:#1a1a1a;fill-opacity:1;stroke:#000000;stroke-width:0;stroke-dasharray:none;stroke-opacity:1"
       id="rect23-6-6-6-8"
       width="2.7737508"
       height="0.91336387"
       x="98.450752"
       y="141.07755" />
    <rect
       style="fill:#1a1a1a;fill-opacity:1;stroke:#000000;stroke-width:0;stroke-dasharray:none;stroke-opacity:1"
       id="rect23-7-93-0"
       width="0.83541828"
       height="2.6879144"
       x="112.67392"
       y="135.54492" />
    <rect
       style="fill:#1a1a1a;fill-opacity:1;stroke:#000000;stroke-width:0;stroke-dasharray:none;stroke-opacity:1"
       id="rect23-8-7-8-1"
       width="0.83541828"
       height="2.6879144"
       x="112.67014"
       y="152.32433" />
    <rect
       style="fill:#1a1a1a;fill-opacity:1;stroke:#000000;stroke-width:0;stroke-dasharray:none;stroke-opacity:1"
       id="rect23-5-7-7-3"
       width="0.83541828"
       height="2.6879144"
       x="112.67014"
       y="146.71216" />
    <rect
       style="fill:#1a1a1a;fill-opacity:1;stroke:#000000;stroke-width:0;stroke-dasharray:none;stroke-opacity:1"
       id="rect23-9-1-7-2"
       width="0.83541828"
       height="2.6879144"
       x="112.67793"
       y="141.10071" />
    <rect
       style="fill:#333333;fill-opacity:1;stroke:#000000;stroke-width:0;stroke-dasharray:none;stroke-opacity:1"
       id="rect22-3-2-4"
       width="4.7291451"
       height="4.041595"
       x="104.88661"
       y="134.83798" />
    <rect
       style="fill:#1a1a1a;fill-opacity:1;stroke:#000000;stroke-width:0;stroke-dasharray:none;stroke-opacity:1"
       id="rect23-80-2-5"
       width="0.83541828"
       height="2.6879144"
       x="105.5359"
       y="135.55873" />
    <rect
       style="fill:#1a1a1a;fill-opacity:1;stroke:#000000;stroke-width:0;stroke-dasharray:none;stroke-opacity:1"
       id="rect23-6-9-1-2"
       width="2.7737508"
       height="0.91336387"
       x="105.54501"
       y="135.56268" />
    <rect
       style="fill:#333333;fill-opacity:1;stroke:#000000;stroke-width:0;stroke-dasharray:none;stroke-opacity:1"
       id="rect22-98-7-5-0"
       width="4.7291451"
       height="4.041595"
       x="104.88236"
       y="151.61713" />
    <rect
       style="fill:#1a1a1a;fill-opacity:1;stroke:#000000;stroke-width:0;stroke-dasharray:none;stroke-opacity:1"
       id="rect23-8-9-0-2"
       width="0.83541828"
       height="2.6879144"
       x="105.53195"
       y="152.33794" />
    <rect
       style="fill:#1a1a1a;fill-opacity:1;stroke:#000000;stroke-width:0;stroke-dasharray:none;stroke-opacity:1"
       id="rect23-6-58-9-9-9"
       width="2.7737508"
       height="0.91336387"
       x="105.54108"
       y="152.34206" />
    <rect
       style="fill:#333333;fill-opacity:1;stroke:#000000;stroke-width:0;stroke-dasharray:none;stroke-opacity:1"
       id="rect22-4-3-0-0"
       width="4.7291451"
       height="4.041595"
       x="104.88236"
       y="146.00496" />
    <rect
       style="fill:#1a1a1a;fill-opacity:1;stroke:#000000;stroke-width:0;stroke-dasharray:none;stroke-opacity:1"
       id="rect23-5-2-4-9"
       width="0.83541828"
       height="2.6879144"
       x="105.53195"
       y="146.72595" />
    <rect
       style="fill:#1a1a1a;fill-opacity:1;stroke:#000000;stroke-width:0;stroke-dasharray:none;stroke-opacity:1"
       id="rect23-6-2-4-0-9"
       width="2.7737508"
       height="0.91336387"
       x="105.54108"
       y="146.73007" />
    <rect
       style="fill:#333333;fill-opacity:1;stroke:#000000;stroke-width:0;stroke-dasharray:none;stroke-opacity:1"
       id="rect22-8-3-1-4"
       width="4.7291451"
       height="4.041595"
       x="104.89028"
       y="140.39325" />
    <rect
       style="fill:#1a1a1a;fill-opacity:1;stroke:#000000;stroke-width:0;stroke-dasharray:none;stroke-opacity:1"
       id="rect23-9-7-3-5"
       width="0.83541828"
       height="2.6879144"
       x="105.53964"
       y="141.11417" />
    <rect
       style="fill:#1a1a1a;fill-opacity:1;stroke:#000000;stroke-width:0;stroke-dasharray:none;stroke-opacity:1"
       id="rect23-6-6-1-7-1"
       width="2.7737508"
       height="0.91336387"
       x="105.54887"
       y="141.11818" />
    <rect
       style="fill:#ececec;stroke:#000000;stroke-width:0"
       id="rect1-31"
       width="73.513374"
       height="45.331593"
       x="40.797043"
       y="134.58571"
       ry="0.062961526" />
    <rect
       style="fill:#ff2a2a;stroke:#000000;stroke-width:0"
       id="rect1-3-6"
       width="73.495895"
       height="21.802446"
       x="40.802689"
       y="131.83324"
       ry="3.1449084" />
    <text
       xml:space="preserve"
       style="font-size:11.9006px;font-family:'Liberation Sans';-inkscape-font-specification:'Liberation Sans, Normal';text-align:end;writing-mode:lr-tb;direction:ltr;text-anchor:end;fill:#f9f9f9;stroke:#000000;stroke-width:0"
       x="105.59525"
       y="150.48586"
       id="text2-2"><tspan
         sodipodi:role="line"
         id="tspan2-6"
         style="fill:#f9f9f9;stroke-width:0"
         x="105.59525"
         y="150.48586">Calendário</tspan></text>
    <path
       style="fill:#4d4d4d;stroke:#000000;stroke-width:0"
       id="path2-28-7"
       sodipodi:type="arc"
       sodipodi:cx="57.456223"
       sodipodi:cy="138.42194"
       sodipodi:rx="1.5245103"
       sodipodi:ry="1.521951"
       sodipodi:start="3.17482"
       sodipodi:end="3.1616747"
       sodipodi:open="true"
       sodipodi:arc-type="arc"
       d="m 55.932554,138.37137 a 1.5245103,1.521951 0 0 1 1.569307,-1.4707 1.5245103,1.521951 0 0 1 1.47833,1.56183 1.5245103,1.521951 0 0 1 -1.559591,1.48097 1.5245103,1.521951 0 0 1 -1.48858,-1.5521" />
    <path
       style="fill:#f9f9f9;stroke:#000000;stroke-width:0"
       id="path2-1-9-56"
       sodipodi:type="arc"
       sodipodi:cx="57.454086"
       sodipodi:cy="138.43375"
       sodipodi:rx="1.2774485"
       sodipodi:ry="1.275304"
       sodipodi:start="3.17482"
       sodipodi:end="3.1616747"
       sodipodi:open="true"
       sodipodi:arc-type="arc"
       d="m 56.177343,138.39138 a 1.2774485,1.275304 0 0 1 1.314986,-1.23237 1.2774485,1.275304 0 0 1 1.238752,1.30873 1.2774485,1.275304 0 0 1 -1.306844,1.24096 1.2774485,1.275304 0 0 1 -1.247342,-1.30056" />
    <rect
       style="fill:#4d4d4d;stroke:#000000;stroke-width:0"
       id="rect2-3-7-98"
       width="1.9566296"
       height="13.975925"
       x="56.450409"
       y="125.18178"
       ry="0.49591994" />
    <rect
       style="fill:#e6e6e6;stroke:#000000;stroke-width:0"
       id="rect2-3-6-36-72"
       width="0.26984328"
       height="7.0581961"
       x="57.735107"
       y="125.52773"
       ry="0.2504521" />
    <path
       style="fill:#4d4d4d;stroke:#000000;stroke-width:0"
       id="path2-2-8"
       sodipodi:type="arc"
       sodipodi:cx="47.404564"
       sodipodi:cy="138.41078"
       sodipodi:rx="1.5245103"
       sodipodi:ry="1.521951"
       sodipodi:start="3.17482"
       sodipodi:end="3.1616747"
       sodipodi:open="true"
       sodipodi:arc-type="arc"
       d="m 45.880895,138.36022 a 1.5245103,1.521951 0 0 1 1.569307,-1.47071 1.5245103,1.521951 0 0 1 1.478331,1.56183 1.5245103,1.521951 0 0 1 -1.559591,1.48098 1.5245103,1.521951 0 0 1 -1.488581,-1.5521" />
    <path
       style="fill:#f9f9f9;stroke:#000000;stroke-width:0"
       id="path2-1-0-2"
       sodipodi:type="arc"
       sodipodi:cx="47.402458"
       sodipodi:cy="138.42267"
       sodipodi:rx="1.2774485"
       sodipodi:ry="1.275304"
       sodipodi:start="3.17482"
       sodipodi:end="3.1616747"
       sodipodi:open="true"
       sodipodi:arc-type="arc"
       d="m 46.125715,138.3803 a 1.2774485,1.275304 0 0 1 1.314986,-1.23236 1.2774485,1.275304 0 0 1 1.238752,1.30872 1.2774485,1.275304 0 0 1 -1.306844,1.24096 1.2774485,1.275304 0 0 1 -1.247342,-1.30056" />
    <rect
       style="fill:#4d4d4d;stroke:#000000;stroke-width:0"
       id="rect2-3-2-9"
       width="1.9566296"
       height="13.975925"
       x="46.39875"
       y="125.17075"
       ry="0.49591994" />
    <rect
       style="fill:#e6e6e6;stroke:#000000;stroke-width:0"
       id="rect2-3-6-3-96"
       width="0.26984328"
       height="7.0581961"
       x="47.683479"
       y="125.51659"
       ry="0.2504521" />
    <path
       style="fill:#4d4d4d;stroke:#000000;stroke-width:0"
       id="path2-28-5-0"
       sodipodi:type="arc"
       sodipodi:cx="77.429932"
       sodipodi:cy="138.41"
       sodipodi:rx="1.5245103"
       sodipodi:ry="1.521951"
       sodipodi:start="3.17482"
       sodipodi:end="3.1616747"
       sodipodi:open="true"
       sodipodi:arc-type="arc"
       d="m 75.906263,138.35944 a 1.5245103,1.521951 0 0 1 1.569307,-1.47071 1.5245103,1.521951 0 0 1 1.47833,1.56184 1.5245103,1.521951 0 0 1 -1.55959,1.48097 1.5245103,1.521951 0 0 1 -1.488581,-1.5521" />
    <path
       style="fill:#f9f9f9;stroke:#000000;stroke-width:0"
       id="path2-1-9-5-2"
       sodipodi:type="arc"
       sodipodi:cx="77.427773"
       sodipodi:cy="138.42188"
       sodipodi:rx="1.2774485"
       sodipodi:ry="1.275304"
       sodipodi:start="3.17482"
       sodipodi:end="3.1616747"
       sodipodi:open="true"
       sodipodi:arc-type="arc"
       d="m 76.151029,138.37951 a 1.2774485,1.275304 0 0 1 1.314986,-1.23237 1.2774485,1.275304 0 0 1 1.238752,1.30872 1.2774485,1.275304 0 0 1 -1.306844,1.24097 1.2774485,1.275304 0 0 1 -1.247341,-1.30056" />
    <rect
       style="fill:#4d4d4d;stroke:#000000;stroke-width:0"
       id="rect2-3-7-4-7"
       width="1.9566296"
       height="13.975925"
       x="76.424141"
       y="125.16996"
       ry="0.49591994" />
    <rect
       style="fill:#e6e6e6;stroke:#000000;stroke-width:0"
       id="rect2-3-6-36-7-6"
       width="0.26984328"
       height="7.0581961"
       x="77.708832"
       y="125.5158"
       ry="0.2504521" />
    <path
       style="fill:#4d4d4d;stroke:#000000;stroke-width:0"
       id="path2-2-6-1"
       sodipodi:type="arc"
       sodipodi:cx="67.378288"
       sodipodi:cy="138.39893"
       sodipodi:rx="1.5245103"
       sodipodi:ry="1.521951"
       sodipodi:start="3.17482"
       sodipodi:end="3.1616747"
       sodipodi:open="true"
       sodipodi:arc-type="arc"
       d="m 65.854619,138.34836 a 1.5245103,1.521951 0 0 1 1.569308,-1.4707 1.5245103,1.521951 0 0 1 1.47833,1.56183 1.5245103,1.521951 0 0 1 -1.559591,1.48097 1.5245103,1.521951 0 0 1 -1.488581,-1.5521" />
    <path
       style="fill:#f9f9f9;stroke:#000000;stroke-width:0"
       id="path2-1-0-5-3"
       sodipodi:type="arc"
       sodipodi:cx="67.376152"
       sodipodi:cy="138.41075"
       sodipodi:rx="1.2774485"
       sodipodi:ry="1.275304"
       sodipodi:start="3.17482"
       sodipodi:end="3.1616747"
       sodipodi:open="true"
       sodipodi:arc-type="arc"
       d="m 66.099409,138.36838 a 1.2774485,1.275304 0 0 1 1.314985,-1.23236 1.2774485,1.275304 0 0 1 1.238753,1.30872 1.2774485,1.275304 0 0 1 -1.306844,1.24097 1.2774485,1.275304 0 0 1 -1.247342,-1.30057" />
    <rect
       style="fill:#4d4d4d;stroke:#000000;stroke-width:0"
       id="rect2-3-2-6-21"
       width="1.9566296"
       height="13.975925"
       x="66.372482"
       y="125.15884"
       ry="0.49591994" />
    <rect
       style="fill:#e6e6e6;stroke:#000000;stroke-width:0"
       id="rect2-3-6-3-9-5"
       width="0.26984328"
       height="7.0581961"
       x="67.657204"
       y="125.50468"
       ry="0.2504521" />
    <path
       style="fill:#4d4d4d;stroke:#000000;stroke-width:0"
       id="path2-28-6-9"
       sodipodi:type="arc"
       sodipodi:cx="87.597511"
       sodipodi:cy="138.39497"
       sodipodi:rx="1.5245103"
       sodipodi:ry="1.521951"
       sodipodi:start="3.17482"
       sodipodi:end="3.1616747"
       sodipodi:open="true"
       sodipodi:arc-type="arc"
       d="m 86.073843,138.34441 a 1.5245103,1.521951 0 0 1 1.569307,-1.47071 1.5245103,1.521951 0 0 1 1.47833,1.56184 1.5245103,1.521951 0 0 1 -1.559591,1.48097 1.5245103,1.521951 0 0 1 -1.488581,-1.5521" />
    <path
       style="fill:#f9f9f9;stroke:#000000;stroke-width:0"
       id="path2-1-9-4-9"
       sodipodi:type="arc"
       sodipodi:cx="87.595413"
       sodipodi:cy="138.40691"
       sodipodi:rx="1.2774485"
       sodipodi:ry="1.275304"
       sodipodi:start="3.17482"
       sodipodi:end="3.1616747"
       sodipodi:open="true"
       sodipodi:arc-type="arc"
       d="m 86.31867,138.36454 a 1.2774485,1.275304 0 0 1 1.314986,-1.23237 1.2774485,1.275304 0 0 1 1.238752,1.30872 1.2774485,1.275304 0 0 1 -1.306844,1.24097 1.2774485,1.275304 0 0 1 -1.247342,-1.30056" />
    <rect
       style="fill:#4d4d4d;stroke:#000000;stroke-width:0"
       id="rect2-3-7-9-1"
       width="1.9566296"
       height="13.975925"
       x="86.591667"
       y="125.15488"
       ry="0.49591994" />
    <rect
       style="fill:#e6e6e6;stroke:#000000;stroke-width:0"
       id="rect2-3-6-36-5-4"
       width="0.26984328"
       height="7.0581961"
       x="87.876381"
       y="125.50073"
       ry="0.2504521" />
    <path
       style="fill:#4d4d4d;stroke:#000000;stroke-width:0"
       id="path2-28-5-8-9"
       sodipodi:type="arc"
       sodipodi:cx="107.57121"
       sodipodi:cy="138.3831"
       sodipodi:rx="1.5245103"
       sodipodi:ry="1.521951"
       sodipodi:start="3.17482"
       sodipodi:end="3.1616747"
       sodipodi:open="true"
       sodipodi:arc-type="arc"
       d="m 106.04754,138.33254 a 1.5245103,1.521951 0 0 1 1.56931,-1.47071 1.5245103,1.521951 0 0 1 1.47833,1.56183 1.5245103,1.521951 0 0 1 -1.55959,1.48098 1.5245103,1.521951 0 0 1 -1.48858,-1.5521" />
    <path
       style="fill:#f9f9f9;stroke:#000000;stroke-width:0"
       id="path2-1-9-5-7-1"
       sodipodi:type="arc"
       sodipodi:cx="107.56911"
       sodipodi:cy="138.39497"
       sodipodi:rx="1.2774485"
       sodipodi:ry="1.275304"
       sodipodi:start="3.17482"
       sodipodi:end="3.1616747"
       sodipodi:open="true"
       sodipodi:arc-type="arc"
       d="m 106.29236,138.35261 a 1.2774485,1.275304 0 0 1 1.31499,-1.23237 1.2774485,1.275304 0 0 1 1.23875,1.30872 1.2774485,1.275304 0 0 1 -1.30684,1.24097 1.2774485,1.275304 0 0 1 -1.24734,-1.30057" />
    <rect
       style="fill:#4d4d4d;stroke:#000000;stroke-width:0"
       id="rect2-3-7-4-1-0"
       width="1.9566296"
       height="13.975925"
       x="106.56537"
       y="125.14302"
       ry="0.49591994" />
    <rect
       style="fill:#e6e6e6;stroke:#000000;stroke-width:0"
       id="rect2-3-6-36-7-7-7"
       width="0.26984328"
       height="7.0581961"
       x="107.85013"
       y="125.48891"
       ry="0.2504521" />
    <path
       style="fill:#4d4d4d;stroke:#000000;stroke-width:0"
       id="path2-2-6-2-5"
       sodipodi:type="arc"
       sodipodi:cx="97.519592"
       sodipodi:cy="138.37198"
       sodipodi:rx="1.5245103"
       sodipodi:ry="1.521951"
       sodipodi:start="3.17482"
       sodipodi:end="3.1616747"
       sodipodi:open="true"
       sodipodi:arc-type="arc"
       d="m 95.995924,138.32142 a 1.5245103,1.521951 0 0 1 1.569307,-1.47071 1.5245103,1.521951 0 0 1 1.47833,1.56183 1.5245103,1.521951 0 0 1 -1.559591,1.48097 1.5245103,1.521951 0 0 1 -1.488581,-1.55209" />
    <path
       style="fill:#f9f9f9;stroke:#000000;stroke-width:0"
       id="path2-1-0-5-7-8"
       sodipodi:type="arc"
       sodipodi:cx="97.517426"
       sodipodi:cy="138.38383"
       sodipodi:rx="1.2774485"
       sodipodi:ry="1.275304"
       sodipodi:start="3.17482"
       sodipodi:end="3.1616747"
       sodipodi:open="true"
       sodipodi:arc-type="arc"
       d="m 96.240682,138.34147 a 1.2774485,1.275304 0 0 1 1.314986,-1.23237 1.2774485,1.275304 0 0 1 1.238752,1.30872 1.2774485,1.275304 0 0 1 -1.306844,1.24097 1.2774485,1.275304 0 0 1 -1.247341,-1.30056" />
    <rect
       style="fill:#4d4d4d;stroke:#000000;stroke-width:0"
       id="rect2-3-2-6-2-7"
       width="1.9566296"
       height="13.975925"
       x="96.513756"
       y="125.13194"
       ry="0.49591994" />
    <rect
       style="fill:#e6e6e6;stroke:#000000;stroke-width:0"
       id="rect2-3-6-3-9-2-0"
       width="0.26984328"
       height="7.0581961"
       x="97.798462"
       y="125.47778"
       ry="0.2504521" />
    <rect
       style="fill:#aade87;stroke:#000000;stroke-width:0"
       id="rect5-4"
       width="6.8495483"
       height="7.4019322"
       x="43.260162"
       y="158.92943"
       ry="0.55439109" />
    <rect
       style="fill:#aade87;stroke:#000000;stroke-width:0"
       id="rect5-4-0"
       width="47.510815"
       height="7.1627483"
       x="43.324005"
       y="168.2618"
       ry="0.53647667" />
    <rect
       style="fill:#999999;stroke:#000000;stroke-width:0"
       id="rect5-4-0-3"
       width="17.014866"
       height="7.0830202"
       x="94.312927"
       y="168.27005"
       ry="0.53050512" />
    <rect
       style="fill:#aade87;stroke:#000000;stroke-width:0"
       id="rect5-5-8"
       width="6.8495483"
       height="7.4019322"
       x="53.43158"
       y="158.93221"
       ry="0.55439109" />
    <rect
       style="fill:#aade87;stroke:#000000;stroke-width:0"
       id="rect5-9-0"
       width="6.8495483"
       height="7.4019322"
       x="63.641998"
       y="158.92194"
       ry="0.55439109" />
    <text
       xml:space="preserve"
       style="font-size:3.35134px;font-family:'Liberation Sans';-inkscape-font-specification:'Liberation Sans, Normal';text-align:end;writing-mode:lr-tb;direction:ltr;text-anchor:end;fill:#1a1a1a;stroke:#000000;stroke-width:0"
       x="70.174316"
       y="158.12585"
       id="text7-0-4"><tspan
         sodipodi:role="line"
         id="tspan7-2-2"
         style="fill:#1a1a1a;stroke-width:0"
         x="70.174316"
         y="158.12585">Qua</tspan></text>
    <rect
       style="fill:#aade87;stroke:#000000;stroke-width:0"
       id="rect5-1-9"
       width="6.8495483"
       height="7.4019322"
       x="73.836761"
       y="158.94218"
       ry="0.55439109" />
    <text
       xml:space="preserve"
       style="font-size:3.35134px;font-family:'Liberation Sans';-inkscape-font-specification:'Liberation Sans, Normal';text-align:end;writing-mode:lr-tb;direction:ltr;text-anchor:end;fill:#1a1a1a;stroke:#000000;stroke-width:0"
       x="79.660652"
       y="158.14352"
       id="text7-1-6"><tspan
         sodipodi:role="line"
         id="tspan7-0-1"
         style="fill:#1a1a1a;stroke-width:0"
         x="79.660652"
         y="158.14352">Qui</tspan></text>
    <rect
       style="fill:#aade87;stroke:#000000;stroke-width:0"
       id="rect5-6-0"
       width="6.8495483"
       height="7.4019322"
       x="84.038872"
       y="158.94482"
       ry="0.55439109" />
    <text
       xml:space="preserve"
       style="font-size:3.35134px;font-family:'Liberation Sans';-inkscape-font-specification:'Liberation Sans, Normal';text-align:end;writing-mode:lr-tb;direction:ltr;text-anchor:end;fill:#1a1a1a;stroke:#000000;stroke-width:0"
       x="90.115364"
       y="158.15297"
       id="text7-4-4"><tspan
         sodipodi:role="line"
         id="tspan7-6-2"
         style="fill:#1a1a1a;stroke-width:0"
         x="90.115364"
         y="158.15297">Sex</tspan></text>
    <rect
       style="fill:#999999;stroke:#000000;stroke-width:0"
       id="rect5-63-2"
       width="6.8495483"
       height="7.4019322"
       x="94.228622"
       y="158.93387"
       ry="0.55439109" />
    <text
       xml:space="preserve"
       style="font-size:3.35134px;font-family:'Liberation Sans';-inkscape-font-specification:'Liberation Sans, Normal';text-align:end;writing-mode:lr-tb;direction:ltr;text-anchor:end;fill:#1a1a1a;stroke:#000000;stroke-width:0"
       x="100.50479"
       y="158.12639"
       id="text7-28-2"><tspan
         sodipodi:role="line"
         id="tspan7-4-0"
         style="fill:#1a1a1a;stroke-width:0"
         x="100.50479"
         y="158.12639">Sáb</tspan></text>
    <rect
       style="fill:#999999;stroke:#000000;stroke-width:0"
       id="rect5-2-5"
       width="6.8495483"
       height="7.4019322"
       x="104.43067"
       y="158.92934"
       ry="0.55439109" />
    <text
       xml:space="preserve"
       style="font-size:3.35134px;font-family:'Liberation Sans';-inkscape-font-specification:'Liberation Sans, Normal';text-align:end;writing-mode:lr-tb;direction:ltr;text-anchor:end;fill:#1a1a1a;stroke:#000000;stroke-width:0"
       x="111.27243"
       y="158.12259"
       id="text7-6-5"><tspan
         sodipodi:role="line"
         id="tspan7-29-2"
         style="fill:#1a1a1a;stroke-width:0"
         x="111.27243"
         y="158.12259">Dom</tspan></text>
    <text
       xml:space="preserve"
       style="font-size:3.35134px;font-family:'Liberation Sans';-inkscape-font-specification:'Liberation Sans, Normal';text-align:end;writing-mode:lr-tb;direction:ltr;text-anchor:end;fill:#1a1a1a;stroke:#000000;stroke-width:0"
       x="49.584023"
       y="158.12497"
       id="text7-9"><tspan
         sodipodi:role="line"
         id="tspan7-02"
         style="fill:#1a1a1a;stroke-width:0"
         x="49.584023"
         y="158.12497">Seg</tspan></text>
    <text
       xml:space="preserve"
       style="font-size:3.35134px;font-family:'Liberation Sans';-inkscape-font-specification:'Liberation Sans, Normal';text-align:end;writing-mode:lr-tb;direction:ltr;text-anchor:end;fill:#1a1a1a;stroke:#000000;stroke-width:0"
       x="81.381065"
       y="172.82257"
       id="text7-9-8"><tspan
         sodipodi:role="line"
         id="tspan7-02-7"
         style="fill:#1a1a1a;stroke-width:0"
         x="82.312172"
         y="172.82257">Trigger deve dispar </tspan></text>
    <text
       xml:space="preserve"
       style="font-size:3.05904px;font-family:'Liberation Sans';-inkscape-font-specification:'Liberation Sans, Normal';text-align:end;writing-mode:lr-tb;direction:ltr;text-anchor:end;fill:#1a1a1a;stroke:#000000;stroke-width:0"
       x="102.76375"
       y="170.74074"
       id="text7-9-8-2"><tspan
         sodipodi:role="line"
         style="text-align:center;text-anchor:middle;fill:#1a1a1a;stroke-width:0"
         x="102.76375"
         y="170.74074"
         id="tspan1">Trigger não</tspan><tspan
         sodipodi:role="line"
         style="fill:#1a1a1a;stroke-width:0"
         x="103.1887"
         y="174.56454"
         id="tspan2"><tspan
   style="text-align:center;text-anchor:middle;stroke-width:0"
   id="tspan3">deve dispar</tspan> </tspan></text>
    <text
       xml:space="preserve"
       style="font-size:3.35134px;font-family:'Liberation Sans';-inkscape-font-specification:'Liberation Sans, Normal';text-align:end;writing-mode:lr-tb;direction:ltr;text-anchor:end;fill:#1a1a1a;stroke:#000000;stroke-width:0"
       x="58.988403"
       y="158.12555"
       id="text7-2-8"><tspan
         sodipodi:role="line"
         id="tspan7-8-3"
         style="fill:#1a1a1a;stroke-width:0"
         x="58.988403"
         y="158.12555">Ter</tspan></text>
    <text
       xml:space="preserve"
       style="font-size:5.02247px;font-family:'Liberation Sans';-inkscape-font-specification:'Liberation Sans, Normal';text-align:end;writing-mode:lr-tb;direction:ltr;text-anchor:end;fill:#1a1a1a;stroke:#000000;stroke-width:0"
       x="48.159439"
       y="164.37677"
       id="text10"><tspan
         sodipodi:role="line"
         id="tspan10"
         style="fill:#1a1a1a;stroke-width:0"
         x="48.159439"
         y="164.37677">1</tspan></text>
    <text
       xml:space="preserve"
       style="font-size:5.02247px;font-family:'Liberation Sans';-inkscape-font-specification:'Liberation Sans, Normal';text-align:end;writing-mode:lr-tb;direction:ltr;text-anchor:end;fill:#1a1a1a;stroke:#000000;stroke-width:0"
       x="99.095383"
       y="164.34055"
       id="text10-4-68-9"><tspan
         sodipodi:role="line"
         id="tspan10-6-7-1"
         style="fill:#1a1a1a;stroke-width:0"
         x="99.095383"
         y="164.34055">6</tspan></text>
    <text
       xml:space="preserve"
       style="font-size:5.02247px;font-family:'Liberation Sans';-inkscape-font-specification:'Liberation Sans, Normal';text-align:end;writing-mode:lr-tb;direction:ltr;text-anchor:end;fill:#1a1a1a;stroke:#000000;stroke-width:0"
       x="109.31454"
       y="164.32631"
       id="text10-4-3-2"><tspan
         sodipodi:role="line"
         id="tspan10-6-73-7"
         style="fill:#1a1a1a;stroke-width:0"
         x="109.31454"
         y="164.32631">7</tspan></text>
    <text
       xml:space="preserve"
       style="font-size:5.02247px;font-family:'Liberation Sans';-inkscape-font-specification:'Liberation Sans, Normal';text-align:end;writing-mode:lr-tb;direction:ltr;text-anchor:end;fill:#1a1a1a;stroke:#000000;stroke-width:0"
       x="58.257042"
       y="164.39832"
       id="text10-9"><tspan
         sodipodi:role="line"
         id="tspan10-1"
         style="fill:#1a1a1a;stroke-width:0"
         x="58.257042"
         y="164.39832"
         dx="-0.056501959">2</tspan></text>
    <text
       xml:space="preserve"
       style="font-size:5.02247px;font-family:'Liberation Sans';-inkscape-font-specification:'Liberation Sans, Normal';text-align:end;writing-mode:lr-tb;direction:ltr;text-anchor:end;fill:#1a1a1a;stroke:#000000;stroke-width:0"
       x="68.470276"
       y="164.39832"
       id="text10-9-4"><tspan
         sodipodi:role="line"
         id="tspan10-1-4"
         style="fill:#1a1a1a;stroke-width:0"
         x="68.470276"
         y="164.39832">3</tspan></text>
    <text
       xml:space="preserve"
       style="font-size:5.02247px;font-family:'Liberation Sans';-inkscape-font-specification:'Liberation Sans, Normal';text-align:end;writing-mode:lr-tb;direction:ltr;text-anchor:end;fill:#1a1a1a;stroke:#000000;stroke-width:0"
       x="78.767227"
       y="164.36307"
       id="text10-9-0"><tspan
         sodipodi:role="line"
         id="tspan10-1-5"
         style="fill:#1a1a1a;stroke-width:0"
         x="78.767227"
         y="164.36307">4</tspan></text>
    <text
       xml:space="preserve"
       style="font-size:5.02247px;font-family:'Liberation Sans';-inkscape-font-specification:'Liberation Sans, Normal';text-align:end;writing-mode:lr-tb;direction:ltr;text-anchor:end;fill:#1a1a1a;stroke:#000000;stroke-width:0"
       x="88.951111"
       y="164.36307"
       id="text10-9-3"><tspan
         sodipodi:role="line"
         id="tspan10-1-51"
         style="fill:#1a1a1a;stroke-width:0"
         x="88.951111"
         y="164.36307">5</tspan></text>
  </g>
</svg>
